<?xml version="1.0" encoding="iso-8859-1"?>
<!-- Generator: Adobe Illustrator 19.0.0, SVG Export Plug-In . SVG Version: 6.00 Build 0)  -->
<svg version="1.1" id="Layer_1" xmlns="http://www.w3.org/2000/svg" xmlns:xlink="http://www.w3.org/1999/xlink" x="0px" y="0px"
	 viewBox="0 0 473.654 473.654" height="50px" style="enable-background:new 0 0 473.654 473.654;" xml:space="preserve">
<circle style="fill:#A2D4DE;" cx="236.827" cy="236.827" r="236.827"/>
<path style="fill:#FFFFFF;" d="M354.246,154.987c-5.318,0-10.415,0.909-15.194,2.52c-5.299-33.454-34.258-59.025-69.205-59.025
	c-11.376,0-22.112,2.73-31.614,7.539c-15.149-24.083-41.954-40.099-72.514-40.099c-39.269,0-72.286,26.465-82.383,62.507
	c-28.87,5.501-50.709,30.837-50.709,61.303c0,34.494,27.957,62.455,62.447,62.455c3.841,0,7.584-0.4,11.234-1.062
	c1.417,0.213,2.861,0.363,4.334,0.363h237.964c3.096,0,6.077-0.494,8.881-1.41c24.778-1.668,44.374-22.25,44.374-47.455
	C401.87,176.317,380.547,154.987,354.246,154.987z"/>
<path style="fill:#F4E028;" d="M160.308,143.689c-5.209-0.299-22.075,5.714-18.915,9.147c35.257,38.233,55.084,59.272,55.084,59.272
	l51.636-22.187C248.113,189.922,188.34,145.309,160.308,143.689z"/>
<path style="fill:#DEBA24;" d="M434.797,165.424c-19.528-18.668-32.497-6.713-64.291-18.215c-15.545-5.621-48.659,1.638-64.22,8.324
	c0,0-189.705,98.803-210.946,99.716c-16.334-12.266-28.312-22.882-38.02-18.705c-4.824,2.075-0.621,11.851,2.431,18.956
	l20.624,45.817c3.717,8.65,14.869,15.265,23.526,11.544c0,0,86.938-18.746,153.981-43.36
	c89.997-33.047,167.439-73.748,167.439-73.748C437.429,188.359,448.218,178.254,434.797,165.424z"/>
<path style="fill:#F4E028;" d="M289.215,219.457c0,0-53.895,20.512-56.58,21.51c-2.689,1.002-4.286,3.496-4.196,6.825
	c0.639,22.55,3.242,113.186,5.078,158.472c0.194,4.66,16.219-3.152,19.842-6.903c22.568-23.376,36.031-155.899,38.117-177.806
	C291.668,219.569,289.215,219.457,289.215,219.457z"/>
<g>
	<path style="fill:#F0EB64;" d="M320.713,183.845c0.931,2.143-0.052,4.633-2.195,5.561l-11.634,5.056
		c-2.147,0.935-4.637-0.052-5.564-2.191l-5.056-11.638c-0.927-2.139,0.056-4.63,2.195-5.561l11.641-5.052
		c2.139-0.931,4.63,0.052,5.557,2.191L320.713,183.845z"/>
	<path style="fill:#F0EB64;" d="M135.78,268.049c0.931,2.143-0.052,4.63-2.191,5.564l-11.638,5.048
		c-2.143,0.927-4.633-0.056-5.561-2.191l-5.052-11.645c-0.931-2.139,0.049-4.63,2.191-5.561l11.638-5.048
		c2.143-0.935,4.63,0.049,5.561,2.195L135.78,268.049z"/>
	<path style="fill:#F0EB64;" d="M162.918,255.858c0.931,2.146-0.052,4.637-2.195,5.564l-11.634,5.056
		c-2.143,0.931-4.637-0.056-5.564-2.195l-5.052-11.641c-0.931-2.143,0.056-4.63,2.195-5.557l11.634-5.048
		c2.147-0.939,4.637,0.049,5.564,2.184L162.918,255.858z"/>
	<path style="fill:#F0EB64;" d="M188.71,243.899c0.931,2.143-0.056,4.637-2.191,5.564l-11.638,5.056
		c-2.143,0.931-4.633-0.06-5.564-2.195l-5.052-11.638c-0.927-2.139,0.052-4.63,2.195-5.568l11.638-5.048
		c2.143-0.931,4.63,0.052,5.561,2.199L188.71,243.899z"/>
	<path style="fill:#F0EB64;" d="M215.781,231.768c0.946,2.135-0.015,4.633-2.158,5.579l-11.596,5.134
		c-2.139,0.95-4.633-0.022-5.583-2.154l-5.138-11.604c-0.942-2.132,0.022-4.63,2.158-5.576l11.604-5.138
		c2.132-0.942,4.633,0.022,5.579,2.15L215.781,231.768z"/>
	<path style="fill:#F0EB64;" d="M242.28,218.739c0.995,2.109,0.082,4.63-2.027,5.624l-11.48,5.392
		c-2.113,0.998-4.63,0.086-5.624-2.031l-5.396-11.477c-0.991-2.113-0.086-4.63,2.031-5.621l11.48-5.4
		c2.113-0.998,4.63-0.086,5.621,2.027L242.28,218.739z"/>
	<path style="fill:#F0EB64;" d="M267.862,207.595c0.931,2.143-0.049,4.633-2.195,5.561l-11.638,5.06
		c-2.143,0.927-4.63-0.056-5.557-2.191l-5.056-11.641c-0.931-2.139,0.049-4.63,2.191-5.561l11.641-5.052
		c2.143-0.931,4.63,0.056,5.561,2.195L267.862,207.595z"/>
	<path style="fill:#F0EB64;" d="M294.327,195.142c0.931,2.143-0.056,4.637-2.195,5.561l-11.634,5.06
		c-2.143,0.927-4.633-0.056-5.564-2.199l-5.052-11.638c-0.931-2.139,0.052-4.63,2.195-5.561l11.638-5.052
		c2.143-0.931,4.633,0.056,5.561,2.195L294.327,195.142z"/>
	<path style="fill:#F0EB64;" d="M349.572,158.079l5.647,13.758c1.04,2.532,3.934,3.747,6.466,2.707l44.561-20.459
		c0.314-0.127,0.606-0.288,0.875-0.467c-9.626-0.774-20.788-0.684-36.618-6.41c-1.679-0.606-3.579-1.055-5.624-1.38l-12.606,5.785
		C349.744,152.653,348.532,155.551,349.572,158.079z"/>
</g>
<g>
</g>
<g>
</g>
<g>
</g>
<g>
</g>
<g>
</g>
<g>
</g>
<g>
</g>
<g>
</g>
<g>
</g>
<g>
</g>
<g>
</g>
<g>
</g>
<g>
</g>
<g>
</g>
<g>
</g>
</svg>
