<?xml version="1.0" encoding="iso-8859-1"?>
<!-- Generator: Adobe Illustrator 19.0.0, SVG Export Plug-In . SVG Version: 6.00 Build 0)  -->
<svg version="1.1" id="Layer_1" xmlns="http://www.w3.org/2000/svg" xmlns:xlink="http://www.w3.org/1999/xlink" x="0px" y="0px"
	 viewBox="0 0 496.161 496.161" height="50px" style="enable-background:new 0 0 496.161 496.161;" xml:space="preserve">
<path style="fill:#4ABC96;" d="M248.077,0C111.072,0,0.002,111.063,0.002,248.083c0,137.005,111.07,248.078,248.075,248.078
	c137.013,0,248.083-111.073,248.083-248.078C496.16,111.063,385.09,0,248.077,0z"/>
<path style="fill:#EEF471;" d="M249.871,100.374c-82.354,0-149.112,66.759-149.112,149.112c0,82.351,66.759,149.108,149.112,149.108
	c82.347,0,149.112-66.758,149.112-149.108C398.983,167.133,332.217,100.374,249.871,100.374z"/>
<path style="fill:#FFFFFF;" d="M317.953,116.838c-4.556-2.341-9.242-4.456-14.058-6.33l10.611,110.939
	c-0.169,29.875-24.527,54.135-54.445,54.135h-20.38c-29.917,0-54.276-24.26-54.444-54.135l10.63-110.947
	c-4.819,1.874-9.521,3.993-14.088,6.342l-9.935,103.653l-0.03,0.639c0,37.423,30.445,67.867,67.867,67.867h20.381
	c37.423,0,67.864-30.444,67.864-67.867L317.953,116.838z"/>
<g>
</g>
<g>
</g>
<g>
</g>
<g>
</g>
<g>
</g>
<g>
</g>
<g>
</g>
<g>
</g>
<g>
</g>
<g>
</g>
<g>
</g>
<g>
</g>
<g>
</g>
<g>
</g>
<g>
</g>
</svg>
