<?xml version="1.0" encoding="iso-8859-1"?>
<!-- Generator: Adobe Illustrator 19.0.0, SVG Export Plug-In . SVG Version: 6.00 Build 0)  -->
<svg version="1.1" id="Layer_1" xmlns="http://www.w3.org/2000/svg" xmlns:xlink="http://www.w3.org/1999/xlink" x="0px" y="0px"
	 viewBox="0 0 496.162 496.162" style="enable-background:new 0 0 496.162 496.162;" xml:space="preserve">
<path style="fill:#E5AA17;" d="M248.077,0C111.072,0,0.002,111.062,0.002,248.083c0,137.005,111.07,248.079,248.075,248.079
	c137.013,0,248.083-111.074,248.083-248.079C496.16,111.062,385.09,0,248.077,0z"/>
<path style="fill:#327F32;" d="M249.144,99.399c-76.05,0-137.705,53.89-137.705,120.373c0,66.475,61.655,120.369,137.705,120.369
	s137.705-53.894,137.705-120.369C386.85,153.289,325.194,99.399,249.144,99.399z"/>
<g>
	<path style="fill:#379137;" d="M274.338,97.414c-7.127-3.225-12.517-3.967-18.132-1.829c28.249,42.682,54.903,93.16,54.903,146.672
		c0,33.788-16.486,64.012-28.287,94.575c5.673,1.324,13.438,0.915,18.342-3.802c10.244-29.401,24.776-58.802,24.776-90.773
		C325.94,189.913,300.556,140.36,274.338,97.414z"/>
	<path style="fill:#379137;" d="M307.785,108.572c-5.959-5.455-12.198-8.431-20.465-6.327
		c26.563,41.856,48.271,88.226,48.271,140.012c0,30.181-11.327,55.569-20.821,83.333c8.714-0.83,13.541-3.061,18.399-9.686
		c7.191-25.014,17.252-47.016,17.252-73.647C350.422,193.378,330.813,149.609,307.785,108.572z"/>
	<path style="fill:#379137;" d="M342.021,128.831c-7.945-12.566-6.43-14.88-23.609-14.654
		c22.099,39.297,43.769,82.082,43.769,129.072c0,23.445-15.293,43.979-21.1,66.138c8.794-4.548,15.411-8.599,18.725-17.776
		c2.956-16.395,17.205-31.436,17.205-48.362C377.011,202.187,358.535,164.911,342.021,128.831z"/>
	<path style="fill:#379137;" d="M247.855,97.143c-7.597-2.953-11.284-3.695-16.396,1.018
		c27.875,42.506,51.844,83.027,51.844,136.156c0,34.99-13.774,73.87-26.401,105.328c5.294,1.32,10.783,1.985,16.085-1.335
		c11.789-31.283,25.147-69.612,25.147-103.993C298.135,181.198,274.811,140.498,247.855,97.143z"/>
	<path style="fill:#379137;" d="M235.698,149.709c-7.807-16.892-4.762-33.563-14.275-49.231c-6.706-2.073-11.242-1.327-14.646,3.389
		c9.708,15.561,6.847,32.189,14.754,49.101c13.17,28.192,33.398,55.374,33.398,87.304c0,34.48-15.623,71.253-27.901,102.333
		c4.949,0.673,9.976,1.128,15.075,1.35c12.103-31.65,27.664-68.824,27.664-103.683C269.767,207.229,249.232,178.98,235.698,149.709z
		"/>
</g>
<g>
	<path style="fill:#368736;" d="M366.66,156.954c-53.42-12.608-98.795-13.25-159.884-13.25c-19.329,0-42.12-5.7-61.036-4.323
		c-10.745,3.917-13.87,9.372-13.564,16.38c23.254-2.15,50.604,3.163,74.601,3.163c64.485,0,114.03,1.924,170.234,16.701
		C379.092,170.166,377.581,162.558,366.66,156.954z"/>
	<path style="fill:#368736;" d="M338.908,128.02c-45.57-8.688-81.122-8.622-131.566-8.622c-7.784,0-20.078-4.354-27.806-4.124
		c-17.305,1.981-23.835,4.958-22.695,15.129c15.665-0.964,34.542,4.215,50.501,4.215c57.907,0,101.197,1.871,152.834,13.89
		C363.772,141.232,362.257,136.768,338.908,128.02z"/>
	<path style="fill:#368736;" d="M249.144,95.429c-20.267,0-38.463,7.513-55.914,14.188c2.059-0.016,4.154,0.313,6.171-0.05
		c49.368-8.928,87.104-0.245,131.095,11.354C307.644,107.233,278.939,95.429,249.144,95.429z"/>
	<path style="fill:#368736;" d="M380.606,182.927c-56.896-14.723-90.612-15.909-156.805-15.909c-25.675,0-72.309-6.518-97.18-4.112
		c-7.521,4.697-9.506,10.152-7.804,16.104c27.301-2.991,76.577,3.225,104.983,3.225c67.436,0,103.4,2.104,161.537,18.189
		C389.875,195.956,389.501,188.849,380.606,182.927z"/>
	<path style="fill:#368736;" d="M386.265,208.778c-58.416-15.745-119.397-24.213-187.927-24.213c-29.531,0-53.378,0.7-81.788,3.871
		c-6.525,5.952-8.798,9.67-3.282,15.729c29.394-3.497,54.35-4.38,85.07-4.38c68.089,0,129.813,8.97,188.358,25.354
		c2.234-1.071,2.609-5.55,2.609-7.352C389.306,214.077,388.931,212.164,386.265,208.778z"/>
</g>
<g>
	<path style="fill:#429B42;" d="M288.15,291.679c-21.7-5.577-46.087-4.032-67.554-11.72c-29.979-10.742-49.851-28.215-76.788-42.074
		c-9.476-4.877-23.074-4.384-32.086-9.582c-2.739,7.34-1.412,14.115,3.316,19.906c4.3,2.356,12.994-0.856,17.394,1.431
		c28.395,14.781,49.873,33.05,81.554,44.4c21.594,7.738,46.129,6.262,67.99,11.931c15.454,4.001,22.807,14.582,38.199,17.55
		c10.313-2.066,14.85-5.375,18.422-12.21C319.188,307.982,307.721,296.713,288.15,291.679z"/>
	<path style="fill:#429B42;" d="M276.988,313.445c-21.421-5.531-45.517-3.901-66.704-11.491
		c-33.843-12.126-60.829-25.147-90.709-41.183c0.57,10.251,4.541,17.527,12.758,24.191c24.344,11.988,44.755,21.543,71.345,31.072
		c19.952,7.149,42.801,5.226,62.994,10.607c7.02,1.867,11.23,6.059,12.99,10.413c11.854,0.275,21.318-2.869,29.068-8.821
		C295.679,325.609,290.086,316.827,276.988,313.445z"/>
	<path style="fill:#429B42;" d="M200.437,322.947c-21.578-7.73-39.213-19.21-59.295-28.605
		c26.1,30.089,62.933,49.767,108.002,49.767c5.868,0,6.805-3.366,12.485-3.967C239.543,334.476,222.279,330.773,200.437,322.947z"/>
	<path style="fill:#429B42;" d="M299.917,271.214c-22.34-5.692-47.384-4.33-69.481-12.249c-26.471-9.487-43.107-25.319-67.248-37.27
		c-15.925-7.884-37.082-11.346-51.748-20.117c-5.104,5.956-3.688,11.162-1.496,17.428c11.242,6.507,28.663,7.876,40.586,13.878
		c25.993,13.086,44.676,29.906,73.3,40.161c21.594,7.735,46.121,6.262,67.982,11.931c20.698,5.363,37.683,13.117,58.235,16.617
		c9.123-2.739,11.679-6.392,12.906-13.342C340.87,284.802,322.261,276.906,299.917,271.214z"/>
	<path style="fill:#429B42;" d="M377.749,263.755c-23.437-3.519-43.374-9.486-67.129-15.546c-22.32-5.696-47.334-4.33-69.405-12.241
		c-23.212-8.316-36.818-22.661-58.271-32.897c-20.431-9.747-44.116-14.36-62.539-25.545c-11.801,4.215-10.381,10.412-5.274,15.622
		c16.161,9.579,37.315,12.742,55.033,21.288c23.243,11.212,38.899,26.467,64.44,35.617c21.548,7.719,46.029,6.247,67.845,11.912
		c23.595,6.128,43.401,12.21,66.763,15.898C375.779,275.491,379.429,271.111,377.749,263.755z"/>
</g>
<g>
	<path style="fill:#349B34;" d="M348.272,136.144c-28.923,9.468-52.001,21.506-81.658,33.632
		c-21.686,8.867-46.698,14.414-66.602,26.582c-31.715,19.386-53.45,43.849-79.867,66.567c-0.754,5.948,1.89,11.74,7.888,14.555
		c26.815-23.487,49.28-48.68,81.952-68.656c20.136-12.31,45.395-17.94,67.31-26.834c30.097-12.214,53.614-24.206,82.881-33.482
		C361.309,143.879,359.231,135.942,348.272,136.144z"/>
	<path style="fill:#349B34;" d="M325.711,118.131c-25.794,8.84-46.382,20.798-73.108,31.608
		c-22.106,8.951-47.682,14.608-68.174,27.136c-28.773,17.592-47.49,39.53-71.953,59.911c-1.22,7.291-0.65,12.577,4.645,17.206
		c25.747-22.133,46.297-45.704,77.285-64.643c20.171-12.336,45.505-17.944,67.485-26.811c28.945-11.687,52.02-24.126,80.131-33.215
		C340.319,122.217,335.592,118.579,325.711,118.131z"/>
	<path style="fill:#349B34;" d="M296.241,105.244c-20.897,7.723-36.478,17.795-58.255,26.395
		c-22.202,8.775-47.969,14.134-68.438,26.646c-23.583,14.414-37.074,34.374-57.822,50.738c-0.265,3.114-4.571,7.582-4.824,10.749
		c-0.566,7.107,4.602,6.147,4.973,9.823c23.392-19.341,40.211-42.07,67.65-58.84c20.568-12.57,46.469-18.177,68.969-27.075
		c25.419-10.045,44.908-21.031,69.501-29.4C314.028,108.082,307.499,104.854,296.241,105.244z"/>
	<path style="fill:#349B34;" d="M363.757,153.469c-28.169,9.146-49.465,21.64-78.398,33.276
		c-23.024,9.261-49.381,15.309-70.477,28.208c-32.782,20.037-55.26,45.356-82.361,68.927c-1.404,5.665,2.566,10.293,10.324,12.443
		c26.864-23.552,49.254-48.875,82.014-68.9c22.117-13.522,49.655-19.911,73.815-29.386c27.492-10.787,47.177-22.653,73.801-31.176
		C375.687,162.394,372.092,155.451,363.757,153.469z"/>
	<path style="fill:#349B34;" d="M376.28,175.089c-25.809,8.58-44.445,19.972-71.211,30.598
		c-24.057,9.548-51.595,15.994-73.896,29.623c-32.32,19.761-55.088,44.591-81.896,67.791c-0.378,5.952,5.941,9.188,12.674,10.749
		c25.954-22.393,47.888-46.928,79.197-66.07c22.439-13.713,50.433-20.098,75.002-29.592c24.914-9.636,41.703-20.35,65.779-28.345
		C384.769,186.041,387.228,179.259,376.28,175.089z"/>
	<path style="fill:#349B34;" d="M331.314,382.139c-5.86-10.229-20.018-21.919-54.288-19.349c-3.197,0.237-8.078,0.926-14.253,1.798
		c-29.58,4.166-98.84,13.928-115.503-11.254c-11.82-17.864,15.656-42.001,16.165-42.441c3.118-2.674,3.478-7.375,0.808-10.5
		c-2.686-3.113-7.387-3.477-10.504-0.803c-1.562,1.339-38,33.081-18.89,61.961c21.854,33.023,94.9,22.73,130.001,17.784
		c5.906-0.83,10.573-1.488,13.281-1.691c20.691-1.538,34.979,2.686,40.258,11.893c4.812,8.408,1.357,18.851-3.061,25.239
		c-3.937,5.692-10.807,11.342-18.312,10.148c-4.07-0.685-7.884,2.108-8.538,6.17c-0.65,4.055,2.107,7.88,6.17,8.53
		c1.435,0.233,2.877,0.345,4.323,0.345c10.622,0,21.275-6.128,28.601-16.72C336.64,410.144,338.112,394.009,331.314,382.139z"/>
</g>
<g>
</g>
<g>
</g>
<g>
</g>
<g>
</g>
<g>
</g>
<g>
</g>
<g>
</g>
<g>
</g>
<g>
</g>
<g>
</g>
<g>
</g>
<g>
</g>
<g>
</g>
<g>
</g>
<g>
</g>
</svg>
