<?xml version="1.0" encoding="iso-8859-1"?>
<!-- Generator: Adobe Illustrator 19.0.0, SVG Export Plug-In . SVG Version: 6.00 Build 0)  -->
<svg version="1.1" id="Layer_1" xmlns="http://www.w3.org/2000/svg" xmlns:xlink="http://www.w3.org/1999/xlink" x="0px" y="0px"
	 viewBox="0 0 496.158 496.158" height="50px" style="enable-background:new 0 0 496.158 496.158;" xml:space="preserve">
<path style="fill:#93783D;" d="M248.075,0C111.07,0,0,111.062,0,248.083c0,137.005,111.07,248.075,248.075,248.075
	c137.013,0,248.083-111.07,248.083-248.075C496.158,111.062,385.088,0,248.075,0z"/>
<g>
	<path style="fill:#FFFFFF;" d="M355.846,141.343l-1.188-1.186c-11.82-11.82-30.984-11.82-42.805,0l-181.92,181.922
		c-11.82,11.816-11.82,30.984,0,42.801l1.188,1.189c11.822,11.82,30.984,11.82,42.807,0l181.919-181.921
		C367.668,172.328,367.668,153.163,355.846,141.343z"/>
	<path style="fill:#FFFFFF;" d="M352.822,82.166c-20.733-8.672-45.968,4.438-56.359,29.286c-10.39,24.845-2.002,52.02,18.736,60.691
		c20.735,8.668,45.968-4.441,56.361-29.294C381.95,118.009,373.56,90.834,352.822,82.166z"/>
	<path style="fill:#FFFFFF;" d="M415.86,145.199c-8.672-20.736-35.843-29.125-60.689-18.736
		c-24.849,10.393-37.962,35.628-29.29,56.361c8.672,20.74,35.845,29.125,60.691,18.736
		C411.419,191.171,424.53,165.935,415.86,145.199z"/>
	<path style="fill:#FFFFFF;" d="M180.963,324.014c-20.735-8.668-45.968,4.445-56.361,29.294c-10.39,24.841-2,52.016,18.736,60.688
		c20.735,8.672,45.97-4.441,56.359-29.29C210.087,359.864,201.702,332.69,180.963,324.014z"/>
	
		<ellipse transform="matrix(-0.3858 -0.9226 0.9226 -0.3858 -132.8048 575.8962)" style="fill:#FFFFFF;" cx="125.298" cy="332.155" rx="40.701" ry="48.766"/>
</g>
<g>
</g>
<g>
</g>
<g>
</g>
<g>
</g>
<g>
</g>
<g>
</g>
<g>
</g>
<g>
</g>
<g>
</g>
<g>
</g>
<g>
</g>
<g>
</g>
<g>
</g>
<g>
</g>
<g>
</g>
</svg>
