<?xml version="1.0" encoding="iso-8859-1"?>
<!-- Generator: Adobe Illustrator 19.0.0, SVG Export Plug-In . SVG Version: 6.00 Build 0)  -->
<svg version="1.1" id="Layer_1" xmlns="http://www.w3.org/2000/svg" xmlns:xlink="http://www.w3.org/1999/xlink" x="0px" y="0px"
	 viewBox="0 0 496.158 496.158" style="enable-background:new 0 0 496.158 496.158;" xml:space="preserve">
<path style="fill:#D6AFE2;" d="M248.075,0C111.07,0,0,111.062,0,248.083c0,137.005,111.07,248.075,248.075,248.075
	c137.013,0,248.083-111.07,248.083-248.075C496.158,111.062,385.088,0,248.075,0z"/>
<g>
	<path style="fill:#FFFFFF;" d="M370.976,387.127H125.189c-5.225,0-9.456,4.234-9.456,9.452v8.829c0,5.226,4.231,9.456,9.456,9.456
		h245.788c5.218,0,9.456-4.23,9.456-9.456v-8.829C380.433,391.361,376.194,387.127,370.976,387.127z"/>
	<path style="fill:#FFFFFF;" d="M363.778,320.663H129.485c-2.444,0-4.426,2.146-4.426,4.793v4.472c0,2.647,1.981,4.797,4.426,4.797
		h234.293c2.44,0,4.422-2.15,4.422-4.797v-4.472C368.2,322.809,366.218,320.663,363.778,320.663z"/>
	<path style="fill:#FFFFFF;" d="M363.778,253.166H129.485c-2.444,0-4.426,2.142-4.426,4.793v4.468c0,2.655,1.981,4.797,4.426,4.797
		h234.293c2.44,0,4.422-2.142,4.422-4.797v-4.468C368.2,255.308,366.218,253.166,363.778,253.166z"/>
	<path style="fill:#FFFFFF;" d="M360.277,185.67h-227.3c-2.372,0-4.285,2.142-4.285,4.79v4.476c0,2.647,1.913,4.793,4.285,4.793
		h227.3c2.375,0,4.296-2.146,4.296-4.793v-4.476C364.573,187.812,362.653,185.67,360.277,185.67z"/>
	<path style="fill:#FFFFFF;" d="M230.743,107.681h-4.476c-2.643,0-4.789,1.981-4.789,4.422c0,0-19.008,36.761-19.008,112.064
		c0,33.387,0,168.051,0,168.051c0,2.444,2.146,4.422,4.793,4.422h4.472c2.651,0,4.797-1.978,4.797-4.422V224.167
		c0-76.39,19.004-112.064,19.004-112.064C235.536,109.662,233.394,107.681,230.743,107.681z"/>
	<path style="fill:#FFFFFF;" d="M271.191,112.103c0-2.44-2.146-4.422-4.789-4.422h-4.479c-2.644,0-4.79,1.981-4.79,4.422
		c0,0,19.008,35.674,19.008,112.064v168.051c0,2.444,2.142,4.422,4.793,4.422h4.472c2.647,0,4.79-1.978,4.79-4.422
		c0,0,0-134.664,0-168.051C290.195,148.864,271.191,112.103,271.191,112.103z"/>
	<path style="fill:#FFFFFF;" d="M246.939,99.208c-64.815,0-117.344,52.536-117.344,117.339v193.765h234.671V216.547
		C364.267,151.744,311.731,99.208,246.939,99.208z M349.919,386.756H143.94V216.678c0-56.874,46.106-102.983,102.999-102.983
		c56.87,0,102.979,46.109,102.979,102.983v170.078H349.919z"/>
	<path style="fill:#FFFFFF;" d="M246.809,38.206c-15.075,0-27.297,12.226-27.297,27.297c0,15.075,12.222,27.297,27.297,27.297
		c15.075,0,27.297-12.222,27.297-27.297C274.106,50.432,261.884,38.206,246.809,38.206z M246.809,81.914
		c-9.062,0-16.41-7.348-16.41-16.41s7.348-16.411,16.41-16.411s16.411,7.349,16.411,16.411S255.871,81.914,246.809,81.914z"/>
</g>
<path style="fill:#D3D3D3;" d="M249.028,75.159h-4.445c-2.624,0-4.751,2.203-4.751,4.919v35.169c0,2.72,2.127,4.923,4.751,4.923
	h4.445c2.628,0,4.759-2.204,4.759-4.923V80.078C253.787,77.362,251.656,75.159,249.028,75.159z"/>
<g>
</g>
<g>
</g>
<g>
</g>
<g>
</g>
<g>
</g>
<g>
</g>
<g>
</g>
<g>
</g>
<g>
</g>
<g>
</g>
<g>
</g>
<g>
</g>
<g>
</g>
<g>
</g>
<g>
</g>
</svg>
