<?xml version="1.0" encoding="iso-8859-1"?>
<!-- Generator: Adobe Illustrator 19.0.0, SVG Export Plug-In . SVG Version: 6.00 Build 0)  -->
<svg version="1.1" id="Layer_1" xmlns="http://www.w3.org/2000/svg" xmlns:xlink="http://www.w3.org/1999/xlink" x="0px" y="0px"
	 viewBox="0 0 496.158 496.158" style="enable-background:new 0 0 496.158 496.158;" xml:space="preserve">
<path style="fill:#EDC92F;" d="M248.075,0C111.07,0,0,111.063,0,248.083c0,137.005,111.07,248.075,248.075,248.075
	c137.013,0,248.083-111.07,248.083-248.075C496.158,111.062,385.088,0,248.075,0z"/>
<path style="fill:#258ACE;" d="M248.083,158.442c-109.77,0-198.753,25.564-198.753,57.104c0,5.868,3.091,11.537,8.821,16.869
	l44.978,65.959c0,21.731,64.899,39.343,144.954,39.343s144.954-17.611,144.954-39.343c0-0.271-0.062-0.54-0.077-0.815l43.517-63.832
	c6.687-5.711,10.358-11.824,10.358-18.181C446.835,184.006,357.845,158.442,248.083,158.442z"/>
<path style="fill:#3FACE8;" d="M248.083,158.442c-109.77,0-198.753,25.564-198.753,57.104c0,5.868,3.091,11.537,8.821,16.869
	c0,0,52.253,29.722,71.931,36.967c19.669,7.249,37.946,40.379,118.001,40.379s94.246-36.236,119.096-40.379
	c24.856-4.139,69.298-35.655,69.298-35.655c6.687-5.711,10.358-11.824,10.358-18.181
	C446.835,184.006,357.845,158.442,248.083,158.442z"/>
<path style="fill:#2A7CA0;" d="M248.083,165.71c-95.792,0-183.299,22.309-183.299,49.835c0,14.353,31,27.278,64.792,36.371
	c26.241-10.099,210.764-10.099,237.005,0c33.801-9.093,64.793-22.018,64.793-36.371C431.374,188.019,343.875,165.71,248.083,165.71z
	"/>
<path style="fill:#1A6A96;" d="M248.083,235.215c-48.986,0-92.266,6.603-118.507,16.701c31.016,8.343,33.64,45.421,118.507,45.421
	c87.001,0,87.491-37.078,118.498-45.421C340.34,241.817,297.069,235.215,248.083,235.215z"/>
<g>
</g>
<g>
</g>
<g>
</g>
<g>
</g>
<g>
</g>
<g>
</g>
<g>
</g>
<g>
</g>
<g>
</g>
<g>
</g>
<g>
</g>
<g>
</g>
<g>
</g>
<g>
</g>
<g>
</g>
</svg>
