<?xml version="1.0" encoding="iso-8859-1"?>
<!-- Generator: Adobe Illustrator 19.0.0, SVG Export Plug-In . SVG Version: 6.00 Build 0)  -->
<svg version="1.1" id="Layer_1" xmlns="http://www.w3.org/2000/svg" xmlns:xlink="http://www.w3.org/1999/xlink" x="0px" y="0px"
	 viewBox="0 0 496.158 496.158" style="enable-background:new 0 0 496.158 496.158;" xml:space="preserve">
<path style="fill:#337180;" d="M248.075,0C111.07,0,0,111.062,0,248.083c0,137.005,111.07,248.075,248.075,248.075
	c137.013,0,248.083-111.07,248.083-248.075C496.158,111.062,385.088,0,248.075,0z"/>
<g>
	<path style="fill:#D6E5E4;" d="M393.396,118.399H104.392c-12.578,0-22.783,10.198-22.783,22.775
		c0,12.585,10.205,22.783,22.783,22.783h289.005c12.577,0,22.783-10.198,22.783-22.783
		C416.18,128.597,405.974,118.399,393.396,118.399z"/>
	<path style="fill:#D6E5E4;" d="M316.776,413.808H181.011c-5.914,0-10.703,2.456-10.703,5.478c0,3.03,4.789,5.485,10.703,5.485
		h135.766c5.906,0,10.703-2.456,10.703-5.485C327.479,416.264,322.683,413.808,316.776,413.808z"/>
	<path style="fill:#D6E5E4;" d="M379.503,163.047H116.334c-22.745,28.652-36.363,64.877-36.363,104.292
		c0,65.067,37.028,121.452,91.141,149.338h153.606c54.112-27.886,91.141-84.271,91.141-149.338
		C415.858,227.924,402.24,191.699,379.503,163.047z"/>
</g>
<path style="fill:#C8D6D4;" d="M388.186,200.26c0,0-45.283-11.751-138.313,0s-142.23,0-142.23,0
	c-10.175,20.725-15.921,44.013-15.921,68.655c0,60.516,34.442,112.952,84.768,138.887h142.858
	c50.324-25.935,84.76-78.372,84.76-138.887C404.107,244.273,398.361,220.985,388.186,200.26z"/>
<path style="fill:#87C69E;" d="M278.746,300.519c22.538,36.236,3.569,83.903,3.569,83.903l12.623-0.826
	C321.922,314.329,278.746,300.519,278.746,300.519z"/>
<path style="fill:#84AF92;" d="M275.058,330.945c15.894,25.002,3.041,58.224,3.041,58.224l8.752-0.662
	C305.133,340.241,275.058,330.945,275.058,330.945z"/>
<path style="fill:#77B78D;" d="M323.043,325.705c0,0-35.154,5.481-22.596,62.455l9.682,2.169
	C310.129,390.329,301.174,351.074,323.043,325.705z"/>
<path style="fill:#606060;" d="M311.697,389.877c-1.301-6.404-6.962-11.224-13.756-11.224c-5.998,0-11.078,3.779-13.082,9.074
	c-0.842-0.153-1.699-0.26-2.586-0.26c-1.103,0-2.158,0.161-3.183,0.398c-2.311-4.575-7.008-7.742-12.486-7.742
	c-3.756,0-7.153,1.5-9.678,3.909c-2.548-3.542-6.679-5.868-11.376-5.868c-5.156,0-9.625,2.823-12.058,6.969
	c-0.39-0.03-0.765-0.115-1.163-0.115c-3.81,0-7.26,1.538-9.792,4.001c-2.524-2.463-5.976-4.001-9.793-4.001
	c-2.486,0-4.789,0.704-6.816,1.844c-2.341-1.752-5.218-2.823-8.362-2.823c-5.118,0-9.563,2.777-12.011,6.878
	c-0.077,0-0.153-0.023-0.229-0.023c-7.735,0-14.009,6.266-14.031,14c1.729,0.979,3.428,1.997,5.194,2.907h142.858
	c0.222-0.115,0.436-0.245,0.657-0.367c0.475-1.408,0.788-2.892,0.788-4.46C320.793,396.969,317.006,391.882,311.697,389.877z"/>
<g>
	<path style="fill:#DD6B03;" d="M195.906,243.607c-39.76,0-57.96,24.52-57.96,32.323c0,7.245,18.2,32.32,57.96,32.32
		c39.748,0,98.08-26.861,98.08-32.32C293.986,269.451,235.654,243.607,195.906,243.607z"/>
	<path style="fill:#DD6B03;" d="M318.502,243.607c0,0-38.864,14.475-38.864,32.323c0,17.853,38.864,32.32,38.864,32.32
		l-14.888-32.871L318.502,243.607z"/>
	<path style="fill:#DD6B03;" d="M200.516,246.951l44.588,16.724v-34.554C222.809,226.891,200.516,246.951,200.516,246.951z"/>
	<path style="fill:#DD6B03;" d="M200.516,298.048c0,0,22.294,20.063,44.588,17.83v-34.55L200.516,298.048z"/>
</g>
<path style="fill:#191919;" d="M181.018,258.101c-4.617,0-8.369,3.737-8.369,8.358c0,4.617,3.752,8.354,8.369,8.354
	c4.598,0,8.347-3.737,8.347-8.354C189.365,261.838,185.616,258.101,181.018,258.101z"/>
<g>
</g>
<g>
</g>
<g>
</g>
<g>
</g>
<g>
</g>
<g>
</g>
<g>
</g>
<g>
</g>
<g>
</g>
<g>
</g>
<g>
</g>
<g>
</g>
<g>
</g>
<g>
</g>
<g>
</g>
</svg>
