<?xml version="1.0" encoding="iso-8859-1"?>
<!-- Generator: Adobe Illustrator 19.0.0, SVG Export Plug-In . SVG Version: 6.00 Build 0)  -->
<svg version="1.1" id="Layer_1" xmlns="http://www.w3.org/2000/svg" xmlns:xlink="http://www.w3.org/1999/xlink" x="0px" y="0px"
	 viewBox="0 0 496.158 496.158" height="50px" style="enable-background:new 0 0 496.158 496.158;" xml:space="preserve">
<path style="fill:#EDC92F;" d="M248.075,0C111.07,0,0,111.055,0,248.083c0,136.998,111.07,248.075,248.075,248.075
	c137.013,0,248.083-111.078,248.083-248.075C496.158,111.055,385.088,0,248.075,0z"/>
<g>
	<path style="fill:#BF801B;" d="M343.148,79.137h-62.069c-19.533,0-35.425,15.89-35.425,35.421v243.954
		c-0.126,10.785-8.928,19.522-19.742,19.522h-62.068c-10.895,0-19.758-8.862-19.758-19.754v-92.464c0-0.183-0.016-0.362-0.027-0.541
		V195.6c0-4.327-3.507-7.834-7.834-7.834s-7.834,3.507-7.834,7.834v163.56c0,0.373,0.035,0.737,0.086,1.096
		c1.028,18.616,16.496,33.446,35.367,33.446h62.068c19.096,0,34.7-15.19,35.389-34.12c0.008-0.141,0.021-0.28,0.021-0.422v-0.418
		c0.002-0.154,0.012-0.307,0.012-0.461v-92.464c0-0.078-0.01-0.154-0.012-0.232V114.558c0-10.892,8.863-19.753,19.757-19.753h62.069
		c10.893,0,19.753,8.861,19.753,19.753v210.55c0,4.327,3.508,7.834,7.834,7.834c4.327,0,7.834-3.507,7.834-7.834v-210.55
		C378.569,95.027,362.68,79.137,343.148,79.137z"/>
	<path style="fill:#BF801B;" d="M135.969,82.389c-31.132,0-51.247,20.651-51.247,52.612c0,32.792,39.21,66.732,43.682,70.494
		c2.187,1.84,4.876,2.759,7.565,2.759s5.38-0.92,7.566-2.76c4.471-3.762,43.677-37.702,43.677-70.494
		C187.212,103.04,167.098,82.389,135.969,82.389z M135.996,180.532c-11.374-11.303-27.772-30.794-27.772-45.531
		c0-24.06,15.088-29.11,27.745-29.11c12.655,0,27.741,5.051,27.741,29.11C163.71,148.692,148.856,167.815,135.996,180.532z"/>
</g>
<path style="fill:#D1D1D1;" d="M382.984,314.52h-1.469c-3.649,0-6.61,2.96-6.61,6.61v17.076c0,3.649,2.961,6.61,6.61,6.61h1.469
	c3.649,0,6.61-2.961,6.61-6.61V321.13C389.595,317.48,386.634,314.52,382.984,314.52z"/>
<g>
	<path style="fill:#E2E2E2;" d="M369.649,344.563c-14.911,0-24.922,10.114-28.64,23.847h-0.023c0,0.015,0.008,0.03,0.008,0.046
		c-0.004,0.008-0.004,0.015-0.008,0.023h0.008c0.042,2.54,2.498,4.605,6.66,4.605s7.646-1.875,8.5-4.605h0.03
		c3.007-5.776,6.499-9.731,13.465-9.731c10.015,0,15.844,8.117,15.844,18.131c0,10.015-5.829,18.125-15.844,18.125
		c-6.423,0-9.482-3.389-12.685-8.431l-0.252-0.451c-1.103-2.265-4.258-4.177-8.474-4.177c-4.211,0-6.709,2.065-6.809,4.628h-0.065
		c0.016,0.046,0.035,0.084,0.05,0.13c0,0.008-0.004,0.016-0.004,0.023h0.012c4.166,13.028,13.825,22.469,28.227,22.469
		c17.853,0,30.032-14.467,30.032-32.316C399.682,359.031,387.502,344.563,369.649,344.563z"/>
	<path style="fill:#E2E2E2;" d="M376.508,296.327H365.14c-3.813,0-6.905,3.091-6.905,6.908v47.334c0,3.81,25.182,3.81,25.182,0
		v-47.334C383.416,299.418,380.322,296.327,376.508,296.327z"/>
</g>
<g>
</g>
<g>
</g>
<g>
</g>
<g>
</g>
<g>
</g>
<g>
</g>
<g>
</g>
<g>
</g>
<g>
</g>
<g>
</g>
<g>
</g>
<g>
</g>
<g>
</g>
<g>
</g>
<g>
</g>
</svg>
