<?xml version="1.0" encoding="iso-8859-1"?>
<!-- Generator: Adobe Illustrator 19.0.0, SVG Export Plug-In . SVG Version: 6.00 Build 0)  -->
<svg version="1.1" id="Layer_1" xmlns="http://www.w3.org/2000/svg" xmlns:xlink="http://www.w3.org/1999/xlink" x="0px" y="0px"
	 viewBox="0 0 473.931 473.931" height="50px" style="enable-background:new 0 0 473.931 473.931;" xml:space="preserve">
<circle style="fill:#E84849;" cx="236.966" cy="236.966" r="236.966"/>
<path style="fill:#BFBEBE;" d="M404.825,178.714c10.005,10.009,10.005,26.237,0,36.243l-87.688,99.886l-98.816,86.614
	c-10.009,10.009-26.237,10.009-36.246,0l-98.91-98.913c-10.005-10.009-10.005-26.233,0-36.246l97.218-85.013l89.278-101.488
	c10.009-10.005,26.241-10.005,36.246,0L404.825,178.714z"/>
<path style="fill:#939292;" d="M388.507,182.882c8.7,8.696,8.7,22.799,0,31.494l-80.541,91.149l-89.967,79.366
	c-8.7,8.692-22.802,8.692-31.498,0l-85.967-85.967c-8.7-8.696-8.7-22.799,0-31.494l88.579-77.975l81.93-92.534
	c8.7-8.703,22.802-8.703,31.498,0L388.507,182.882z"/>
<path style="fill:#8B8B8C;" d="M143.515,341.907l-42.982-42.982c-8.7-8.696-8.7-22.799,0-31.494l88.579-77.975l81.93-92.534
	c8.7-8.703,22.802-8.703,31.498,0l41.635,42.529L143.515,341.907z"/>
<path style="fill:#E4DFBC;" d="M163.713,313.747c4.505-4.509,4.505-11.813,0-16.314l-30.697-30.694
	c-4.501-4.505-11.809-4.505-16.31,0c-4.505,4.501-4.505,11.802,0,16.307l30.697,30.701
	C151.908,318.248,159.208,318.248,163.713,313.747z"/>
<path style="fill:#ED3432;" d="M163.713,313.747c4.505-4.509,4.505-11.813,0-16.314l-15.517-15.521l-16.31,16.31l15.517,15.521
	C151.908,318.248,159.208,318.248,163.713,313.747z"/>
<path style="fill:#F1EDCD;" d="M148.2,281.912l-15.184-15.173c-4.501-4.505-11.809-4.505-16.31,0l23.334,23.33L148.2,281.912z"/>
<path style="fill:#EE4646;" d="M163.713,313.747c4.505-4.509,4.505-11.813,0-16.314l-15.517-15.521l-8.157,8.161L163.713,313.747z"
	/>
<path style="fill:#E4DFBC;" d="M319.617,157.842c4.505-4.505,4.505-11.813,0-16.314l-30.697-30.694
	c-4.501-4.505-11.809-4.505-16.31,0c-4.505,4.505-4.505,11.802,0,16.31l30.697,30.697
	C307.812,162.348,315.112,162.351,319.617,157.842z"/>
<path style="fill:#ED3432;" d="M319.617,157.842c4.505-4.505,4.505-11.813,0-16.314L304.1,126.015l-16.31,16.31l15.517,15.517
	C307.812,162.348,315.112,162.351,319.617,157.842z"/>
<path style="fill:#F1EDCD;" d="M304.1,126.015l-15.184-15.18c-4.501-4.505-11.809-4.505-16.31,0l23.334,23.33L304.1,126.015z"/>
<path style="fill:#EE4646;" d="M319.617,157.842c4.505-4.505,4.505-11.813,0-16.314L304.1,126.015l-8.157,8.157L319.617,157.842z"/>
<path style="fill:#E4DFBC;" d="M244.154,242.556c4.509-4.509,4.509-11.809,0-16.31l-30.694-30.697
	c-4.501-4.509-11.805-4.509-16.31,0c-4.505,4.509-4.505,11.805,0,16.314l30.697,30.694
	C232.348,247.057,239.652,247.061,244.154,242.556z"/>
<path style="fill:#ED3432;" d="M244.154,242.556c4.509-4.509,4.509-11.809,0-16.31l-15.513-15.517l-16.31,16.31l15.517,15.517
	C232.348,247.057,239.652,247.061,244.154,242.556z"/>
<path style="fill:#F1EDCD;" d="M228.64,210.725l-15.18-15.177c-4.501-4.509-11.805-4.509-16.31,0l23.334,23.33L228.64,210.725z"/>
<path style="fill:#EE4646;" d="M244.154,242.556c4.509-4.509,4.509-11.809,0-16.31l-15.513-15.517l-8.157,8.161L244.154,242.556z"/>
<path style="fill:#E4DFBC;" d="M281.53,200.199c4.505-4.509,4.505-11.809,0-16.31l-30.697-30.694c-4.501-4.509-11.805-4.509-16.31,0
	c-4.505,4.501-4.505,11.802,0,16.31l30.694,30.694C269.721,204.7,277.025,204.7,281.53,200.199z"/>
<path style="fill:#ED3432;" d="M281.53,200.199c4.505-4.509,4.505-11.809,0-16.31l-15.517-15.517l-16.307,16.31l15.513,15.521
	C269.721,204.7,277.025,204.7,281.53,200.199z"/>
<path style="fill:#F1EDCD;" d="M266.013,168.368l-15.18-15.177c-4.501-4.509-11.805-4.509-16.31,0l23.334,23.334L266.013,168.368z"
	/>
<path style="fill:#EE4646;" d="M281.53,200.199c4.505-4.509,4.505-11.809,0-16.31l-15.517-15.517l-8.157,8.157L281.53,200.199z"/>
<path style="fill:#E4DFBC;" d="M203.578,277.44c4.505-4.505,4.505-11.809,0-16.31l-30.694-30.701c-4.501-4.501-11.805-4.501-16.31,0
	c-4.509,4.509-4.509,11.809,0,16.314l30.694,30.697C191.769,281.942,199.073,281.945,203.578,277.44z"/>
<path style="fill:#ED3432;" d="M203.578,277.44c4.505-4.505,4.505-11.809,0-16.31l-15.517-15.521l-16.31,16.31l15.513,15.517
	C191.769,281.942,199.073,281.945,203.578,277.44z"/>
<path style="fill:#F1EDCD;" d="M188.061,245.609l-15.18-15.18c-4.501-4.501-11.805-4.501-16.31,0l23.33,23.334L188.061,245.609z"/>
<path style="fill:#EE4646;" d="M203.578,277.44c4.505-4.505,4.505-11.809,0-16.31l-15.517-15.521l-8.161,8.157L203.578,277.44z"/>
<path style="fill:#E4DFBC;" d="M217.815,367.852c4.509-4.513,4.509-11.816,0-16.318l-30.694-30.694
	c-4.501-4.505-11.809-4.505-16.314,0c-4.501,4.501-4.501,11.801,0,16.314l30.701,30.697
	C206.01,372.35,213.314,372.35,217.815,367.852z"/>
<path style="fill:#ED3432;" d="M217.815,367.852c4.509-4.513,4.509-11.816,0-16.318l-15.513-15.521l-16.31,16.31l15.517,15.525
	C206.01,372.35,213.314,372.35,217.815,367.852z"/>
<path style="fill:#F1EDCD;" d="M202.302,336.014l-15.18-15.173c-4.501-4.505-11.809-4.505-16.314,0l23.337,23.33L202.302,336.014z"
	/>
<path style="fill:#EE4646;" d="M217.815,367.852c4.509-4.513,4.509-11.816,0-16.318l-15.513-15.521l-8.157,8.161L217.815,367.852z"
	/>
<path style="fill:#BFBEBE;" d="M373.72,211.945c4.509-4.505,4.509-11.809,0-16.314l-30.694-30.694
	c-4.501-4.505-11.809-4.505-16.314,0c-4.505,4.505-4.505,11.802,0,16.31l30.697,30.697
	C361.914,216.45,369.218,216.453,373.72,211.945z"/>
<path style="fill:#AEAEAF;" d="M373.72,211.945c4.509-4.505,4.509-11.809,0-16.314l-15.513-15.513l-16.31,16.31l15.513,15.517
	C361.914,216.45,369.218,216.453,373.72,211.945z"/>
<path style="fill:#CDCCCB;" d="M358.202,180.117l-15.18-15.18c-4.501-4.505-11.809-4.505-16.314,0l23.337,23.33L358.202,180.117z"/>
<path style="fill:#C6C5C5;" d="M373.72,211.945c4.509-4.505,4.509-11.809,0-16.314l-15.513-15.513l-8.157,8.157L373.72,211.945z"/>
<path style="fill:#BFBEBE;" d="M298.259,296.658c4.505-4.509,4.505-11.809,0-16.31l-30.694-30.694
	c-4.505-4.509-11.805-4.509-16.314,0c-4.505,4.505-4.505,11.801,0,16.31l30.697,30.694
	C286.454,301.159,293.758,301.163,298.259,296.658z"/>
<path style="fill:#AEAEAF;" d="M298.259,296.658c4.505-4.509,4.505-11.809,0-16.31l-15.517-15.517l-16.307,16.31l15.513,15.517
	C286.454,301.159,293.758,301.163,298.259,296.658z"/>
<path style="fill:#CDCCCB;" d="M282.746,264.827l-15.18-15.177c-4.505-4.509-11.805-4.509-16.314,0l23.334,23.326L282.746,264.827z"
	/>
<path style="fill:#C6C5C5;" d="M298.259,296.658c4.505-4.509,4.505-11.809,0-16.31l-15.517-15.517l-8.157,8.161L298.259,296.658z"/>
<path style="fill:#BFBEBE;" d="M335.636,254.301c4.505-4.509,4.505-11.809,0-16.31l-30.701-30.694
	c-4.501-4.509-11.802-4.509-16.307,0c-4.505,4.501-4.505,11.801,0,16.31l30.694,30.694
	C323.827,258.803,331.127,258.803,335.636,254.301z"/>
<path style="fill:#AEAEAF;" d="M335.636,254.301c4.505-4.509,4.505-11.809,0-16.31l-15.517-15.517l-16.31,16.31l15.517,15.521
	C323.827,258.803,331.127,258.803,335.636,254.301z"/>
<path style="fill:#CDCCCB;" d="M320.119,222.47l-15.184-15.177c-4.501-4.509-11.802-4.509-16.307,0l23.334,23.334L320.119,222.47z"
	/>
<path style="fill:#C6C5C5;" d="M335.636,254.301c4.505-4.509,4.505-11.809,0-16.31l-15.517-15.517l-8.157,8.157L335.636,254.301z"/>
<path style="fill:#E4DFBC;" d="M257.684,331.539c4.505-4.501,4.505-11.802,0-16.307l-30.697-30.701
	c-4.501-4.501-11.801-4.501-16.31,0c-4.505,4.509-4.505,11.809,0,16.314l30.697,30.694
	C245.875,336.044,253.175,336.047,257.684,331.539z"/>
<path style="fill:#ED3432;" d="M257.684,331.539c4.505-4.501,4.505-11.802,0-16.307l-15.517-15.517l-16.31,16.314l15.517,15.513
	C245.875,336.044,253.175,336.047,257.684,331.539z"/>
<path style="fill:#F1EDCD;" d="M242.167,299.711l-15.184-15.18c-4.501-4.501-11.801-4.501-16.31,0l23.334,23.334L242.167,299.711z"
	/>
<path style="fill:#EE4646;" d="M257.684,331.539c4.505-4.501,4.505-11.802,0-16.307l-15.517-15.517l-8.157,8.157L257.684,331.539z"
	/>
<g>
</g>
<g>
</g>
<g>
</g>
<g>
</g>
<g>
</g>
<g>
</g>
<g>
</g>
<g>
</g>
<g>
</g>
<g>
</g>
<g>
</g>
<g>
</g>
<g>
</g>
<g>
</g>
<g>
</g>
</svg>
