<?xml version="1.0" encoding="iso-8859-1"?>
<!-- Generator: Adobe Illustrator 19.0.0, SVG Export Plug-In . SVG Version: 6.00 Build 0)  -->
<svg version="1.1" id="Layer_1" xmlns="http://www.w3.org/2000/svg" xmlns:xlink="http://www.w3.org/1999/xlink" x="0px" y="0px"
	 viewBox="0 0 496.158 496.158" style="enable-background:new 0 0 496.158 496.158;" xml:space="preserve">
<path style="fill:#EA4949;" d="M248.075,0C111.07,0,0,111.063,0,248.083c0,137.005,111.07,248.074,248.075,248.074
	c137.013,0,248.083-111.069,248.083-248.074C496.158,111.063,385.088,0,248.075,0z"/>
<path style="fill:#DDB9B3;" d="M453.663,288.525c-7.589-52.368-65.81-85.823-68.282-87.224c-2.217-1.255-5.021-0.467-6.273,1.744
	c-1.249,2.211-19.681,25.561-17.47,26.812c0.566,0.317,66.689,13.431,73.64,61.368c3.582,24.727-0.907,44.58-24.549,69.038
	c-28.594,29.577-86.018,35.208-122.119,35.208c-68.493-0.008-139.252-37.656-169.512-53.76c-6.715-3.573-10.768-5.73-13.103-6.58
	c-2.389-0.864-5.034,0.359-5.9,2.755c-0.869,2.387,0.365,5.026,2.752,5.898c1.729,0.627,6.228,3.021,11.927,6.051
	c31.011,16.51,103.184,54.924,173.992,54.916c38.153,0,101.484-2.632,132.176-34.39
	C446.667,343.753,457.676,316.219,453.663,288.525z"/>
<path style="fill:#A8A398;" d="M276.489,180.759c-66.735,24.55-123.498-15.623-123.498,15.729c0,12.692-21.665,40.984,0.38,52.544
	c59.257,31.068,80.929,48.711,123.118,51.778c68.87,5.012,126.568,3.833,126.568-62.902
	C403.057,188.049,341.298,156.923,276.489,180.759z"/>
<path style="fill:#A39E93;" d="M112.093,101.156c-17.234,0-31.21,19.072-31.21,42.605c0,23.525,13.976,42.602,31.21,42.602
	c17.235,0,31.207-19.076,31.207-42.602C143.3,120.228,129.328,101.156,112.093,101.156z"/>
<ellipse style="fill:#CCB2AC;" cx="112.089" cy="143.759" rx="24.19" ry="33.02"/>
<path style="fill:#A39E93;" d="M186.215,101.156c-17.237,0-31.208,19.072-31.208,42.605c0,23.525,13.972,42.602,31.208,42.602
	c17.232,0,31.208-19.076,31.208-42.602C217.423,120.228,203.448,101.156,186.215,101.156z"/>
<ellipse style="fill:#CCB2AC;" cx="185.239" cy="143.759" rx="24.18" ry="33.02"/>
<path style="fill:#A39E93;" d="M204.882,170.683c0,0-19.247-31.639-30.464-39.76c-11.219-8.117-38.338-8.852-49.357,0
	c-11.017,8.852-30.466,39.76-30.466,39.76c-8.4,8.37-8.4,35.047,0,43.409c0,0,31.981,36.278,54.481,36.278
	c23.384,0,55.807-36.278,55.807-36.278C213.279,205.73,213.279,179.053,204.882,170.683z"/>
<path style="fill:#AFAAA3;" d="M149.154,203.339c-17.022,0-30.818,10.638-30.818,23.759c0,1.063,14.726,24.447,30.753,24.447
	c17.034,0,30.883-23.104,30.883-24.447C179.973,213.977,166.173,203.339,149.154,203.339z"/>
<path style="fill:#D3C0A9;" d="M138.62,223.15c0,0.513,5.925,13.813,10.514,13.813c4.958,0,10.552-13.167,10.552-13.813
	C159.685,216.792,138.62,216.792,138.62,223.15z"/>
<g>
	<ellipse style="fill:#565553;" cx="174.709" cy="179.959" rx="6.828" ry="11.12"/>
	<ellipse style="fill:#565553;" cx="124.469" cy="179.959" rx="6.828" ry="11.12"/>
</g>
<ellipse style="fill:#474645;" cx="123.499" cy="179.959" rx="5.067" ry="8.584"/>
<g>
	<path style="fill:#D3C0A9;" d="M150.877,304.46c0,0,22.825,5.563,38.934,4.407l3.068-4.224
		C192.879,304.643,158.358,299.854,150.877,304.46z"/>
	<path style="fill:#D3C0A9;" d="M192.303,305.991c0,0-24.738,7.482-28.19,10.359c-3.452,2.876,29.342-2.877,31.641-5.18
		C198.056,308.867,192.303,305.991,192.303,305.991z"/>
</g>
<path style="fill:#DDB9B3;" d="M192.303,309.249c0,0-14.959,15.539-13.807,18.989c1.151,3.45,21.861-17.841,21.861-17.841
	L192.303,309.249z"/>
<polygon style="fill:#D3C0A9;" points="196.329,295.829 190.962,305.798 198.246,312.318 210.521,301.202 "/>
<g>
	<path style="fill:#DDB9B3;" d="M301.609,321.72c0,0,22.824,5.562,38.934,4.407l3.068-4.224
		C343.611,321.904,309.088,317.115,301.609,321.72z"/>
	<path style="fill:#DDB9B3;" d="M343.035,323.25c0,0-24.74,7.482-28.19,10.358c-3.453,2.877,29.339-2.876,31.64-5.179
		C348.787,326.126,343.035,323.25,343.035,323.25z"/>
	<path style="fill:#DDB9B3;" d="M343.035,326.508c0,0-14.958,15.53-13.807,18.988c1.147,3.451,21.861-17.841,21.861-17.841
		L343.035,326.508z"/>
	<polygon style="fill:#DDB9B3;" points="347.061,313.09 341.692,323.059 348.977,329.577 361.253,318.453 	"/>
</g>
<g>
	<path style="fill:#A8A398;" d="M208.602,274.922c0,0-17.451,19.563-16.684,23.586c0.765,4.032,10.74,8.248,17.26,8.057
		c6.518-0.191,36.244-21.865,36.244-21.865L208.602,274.922z"/>
	<path style="fill:#A8A398;" d="M348.402,289.305c0,0-4.41,24.16-1.723,27.037c2.684,2.884,14.572,4.414,17.833,2.303
		c3.259-2.111,18.409-33.945,18.409-33.945L348.402,289.305z"/>
</g>
<g>
</g>
<g>
</g>
<g>
</g>
<g>
</g>
<g>
</g>
<g>
</g>
<g>
</g>
<g>
</g>
<g>
</g>
<g>
</g>
<g>
</g>
<g>
</g>
<g>
</g>
<g>
</g>
<g>
</g>
</svg>
