<?xml version="1.0" encoding="iso-8859-1"?>
<!-- Generator: Adobe Illustrator 19.0.0, SVG Export Plug-In . SVG Version: 6.00 Build 0)  -->
<svg version="1.1" id="Layer_1" xmlns="http://www.w3.org/2000/svg" xmlns:xlink="http://www.w3.org/1999/xlink" x="0px" y="0px"
	 viewBox="0 0 496.158 496.158" style="enable-background:new 0 0 496.158 496.158;" xml:space="preserve">
<path style="fill:#EA4949;" d="M248.077,0.002C111.073,0.002,0,111.063,0,248.083c0,137.004,111.073,248.073,248.077,248.073
	c137.012,0,248.081-111.069,248.081-248.073C496.158,111.063,385.089,0.002,248.077,0.002z"/>
<path style="fill:#357D8E;" d="M217.089,273.199c0,0,13.553,188.997,30.269,188.997h0.631c16.72,0,30.269-188.997,30.269-188.997
	H217.089z"/>
<g>
	<path style="fill:#378299;" d="M214.473,304.696c0,0,9.035,125.999,20.182,125.999h0.417c11.147,0,20.182-125.999,20.182-125.999
		H214.473z"/>
	<path style="fill:#378299;" d="M240.484,304.696c0,0,9.035,125.999,20.182,125.999h0.417c11.146,0,20.182-125.999,20.182-125.999
		H240.484z"/>
	<path style="fill:#378299;" d="M226.774,304.696c0,0,9.035,125.999,20.182,125.999h0.417c11.146,0,20.182-125.999,20.182-125.999
		H226.774z"/>
</g>
<g>
	<path style="fill:#4397AA;" d="M202.97,267.484c0,0,9.035,125.999,20.182,125.999h0.417c11.151,0,20.186-125.999,20.186-125.999
		H202.97z"/>
	<path style="fill:#4397AA;" d="M226.962,267.484c0,0,9.035,125.999,20.182,125.999h0.417c11.15,0,20.186-125.999,20.186-125.999
		H226.962z"/>
	<path style="fill:#4397AA;" d="M251.462,267.484c0,0,9.035,125.999,20.182,125.999h0.42c11.143,0,20.178-125.999,20.178-125.999
		H251.462z"/>
</g>
<g>
	<path style="fill:#EDC92F;" d="M259.323,150.93h-20.794c-25.839,0-48.067,6.051-48.067,22.454l3.741,86.794
		c0,16.399,19.578,29.691,43.73,29.691h19.436c24.148,0,43.73-13.292,43.73-29.691l3.737-86.794
		C304.836,156.981,285.166,150.93,259.323,150.93z"/>
	<path style="fill:#EDC92F;" d="M278.537,118.476c0-16.15-63.981-16.15-63.981,0l-7.589,35.12c0,16.146,79.159,16.146,79.159,0
		L278.537,118.476z"/>
</g>
<g>
	<path style="fill:#3F8CAA;" d="M288.123,152.552c-17.275,0,0,165.456,0,165.456c17.271,0,31.275-37.036,31.275-82.724
		S305.394,152.552,288.123,152.552z"/>
	<path style="fill:#3F8CAA;" d="M206.279,152.552c-17.274,0-31.275,37.043-31.275,82.732s14,82.724,31.275,82.724
		C206.279,318.008,223.55,152.552,206.279,152.552z"/>
</g>
<path style="fill:#96744B;" d="M393.845,317.48l15.423-6.418H8.09c2.127,8.117,4.659,16.062,7.563,23.831h388.964l2.938-3.083
	l-7.345-4.315l8.446-5.084L393.845,317.48z"/>
<g>
	<path style="fill:#635021;" d="M264.155,306.907c-0.65-1.339-1.128-2.444-2.85-1.606c-0.497,0.245-1.17,0.757-1.871,1.377
		c-1.721,1.53-2.972,5.003-2.762,5.439c0.126,0.252,2.75-1.071,5.091-1.461c0.781-0.13,1.461-0.298,1.89-0.513
		C265.378,309.309,264.805,308.246,264.155,306.907z"/>
	<path style="fill:#635021;" d="M268.531,306.762c-0.746-0.559-1.461-1.01-1.978-1.212c-1.787-0.688-2.173,0.455-2.705,1.84
		c-0.54,1.393-1.021,2.494,0.769,3.183c0.443,0.176,1.14,0.283,1.924,0.352c2.368,0.195,5.095,1.293,5.199,1.033
		C271.912,311.501,270.374,308.146,268.531,306.762z"/>
	<rect x="261.079" y="290.709" style="fill:#635021;" width="5.875" height="20.334"/>
	<path style="fill:#635021;" d="M269.338,312.109c-0.096-0.929-0.249-1.763-0.452-2.276c-0.708-1.783-1.809-1.289-3.19-0.738
		c-1.385,0.551-2.525,0.945-1.813,2.728c0.176,0.447,0.563,1.029,1.052,1.652c1.461,1.871,2.505,4.617,2.77,4.514
		C268.156,317.809,269.575,314.401,269.338,312.109z"/>
	<path style="fill:#635021;" d="M262.827,308.965c-1.35-0.627-2.421-1.178-3.229,0.558c-0.233,0.501-0.428,1.324-0.578,2.25
		c-0.363,2.272,0.861,5.753,1.305,5.959c0.252,0.115,1.45-2.566,3.014-4.353c0.524-0.593,0.941-1.155,1.144-1.591
		C265.29,310.051,264.174,309.592,262.827,308.965z"/>
</g>
<path style="fill:#EDC92F;" d="M266.415,279.182h-3.783c-4.698,0-8.503,2.081-8.503,4.651l4.533,13.595
	c0,2.571,2.146,4.651,4.797,4.651h2.13c2.651,0,4.797-2.081,4.797-4.651l4.533-13.595
	C274.919,281.263,271.109,279.182,266.415,279.182z"/>
<g>
	<rect x="226.189" y="290.609" style="fill:#635021;" width="5.876" height="20.335"/>
	<path style="fill:#635021;" d="M229.31,306.907c-0.65-1.339-1.128-2.444-2.854-1.606c-0.497,0.245-1.17,0.757-1.867,1.377
		c-1.721,1.53-2.972,5.003-2.762,5.439c0.126,0.252,2.75-1.071,5.091-1.461c0.776-0.13,1.458-0.298,1.89-0.513
		C230.535,309.309,229.961,308.246,229.31,306.907z"/>
	<path style="fill:#635021;" d="M233.686,306.762c-0.75-0.559-1.465-1.01-1.978-1.212c-1.79-0.688-2.173,0.455-2.708,1.84
		c-0.536,1.393-1.021,2.494,0.769,3.183c0.448,0.176,1.14,0.283,1.928,0.352c2.368,0.195,5.091,1.293,5.194,1.033
		C237.068,311.501,235.53,308.146,233.686,306.762z"/>
	<path style="fill:#635021;" d="M234.207,312.109c-0.096-0.929-0.249-1.763-0.452-2.276c-0.708-1.783-1.809-1.289-3.19-0.738
		c-1.385,0.551-2.525,0.945-1.813,2.728c0.176,0.447,0.563,1.029,1.052,1.652c1.461,1.871,2.505,4.617,2.77,4.514
		C233.025,317.809,234.444,314.401,234.207,312.109z"/>
	<path style="fill:#635021;" d="M227.696,308.965c-1.35-0.627-2.421-1.178-3.229,0.558c-0.233,0.501-0.428,1.324-0.578,2.25
		c-0.363,2.272,0.861,5.753,1.305,5.959c0.252,0.115,1.45-2.566,3.014-4.353c0.524-0.593,0.941-1.155,1.144-1.591
		C230.16,310.051,229.043,309.592,227.696,308.965z"/>
</g>
<path style="fill:#EDC92F;" d="M231.533,279.182h-3.783c-4.693,0-8.503,2.081-8.503,4.651l4.533,13.595
	c0,2.571,2.146,4.651,4.797,4.651h2.131c2.651,0,4.797-2.081,4.797-4.651l4.533-13.595
	C240.037,281.263,236.23,279.182,231.533,279.182z"/>
<path style="fill:#847741;" d="M278.537,117.253V96.956c0-16.15-12.574-29.24-28.089-29.24h-7.803
	c-15.515,0-28.089,13.09-28.089,29.24v20.297c0,3.19,1.144,12.975,1.144,12.975c1.736-1.53,5.875-0.574,5.875-0.574l-0.49,8.897
	c2.429-1.958,5.875-1.714,5.875-1.714l2.184,9.242c1.408-3.489,4.59-5.08,4.59-5.08l4.824,5.187
	c0.685-2.861,4.112-3.657,4.112-3.657c1.346,0.612,4.039,3.856,4.039,3.856c0.734-2.632,5.386-5.226,5.386-5.226
	s4.162,1.92,4.456,4.636l2.276-6.816c0,0,4.958,0.184,7.057,2.705l1.798-7.379c0,0,4.916-2.181,7.915,0.818
	c0.153,0.153-1.346-6.243-1.346-6.243s2.387-1.041,4.529,0.367c0,0-0.081-3.305-0.123-5.386c0,0,0.612-1.653,2.571-0.612
	C282.508,123.928,278.537,118.06,278.537,117.253z"/>
<path style="fill:#F9F3DC;" d="M250.449,64.235h-7.803c-15.515,0-28.089,13.09-28.089,29.24v13.25
	c0,16.146,12.574,29.232,28.089,29.232h7.803c15.515,0,28.089-13.086,28.089-29.232v-13.25
	C278.537,77.325,265.964,64.235,250.449,64.235z"/>
<path style="fill:#4F4F4F;" d="M247.266,101.569c-3.029-0.13-15.458,9.127-15.458,12.581c0,3.458,2.938,17.868,15.148,17.868
	c12.21,0,15.148-14.482,15.148-17.868S250.112,101.692,247.266,101.569z"/>
<path style="fill:#5E5E5E;" d="M246.956,91.302c-9.433,0-13.756,16.686-13.756,21.008c0,4.322,4.602,13.683,6.813,19.126
	c3.141,7.727,6.943,13.886,6.943,13.886s3.741-6.036,6.866-13.702c2.245-5.5,6.889-14.896,6.889-19.31
	C260.712,107.896,256.386,91.302,246.956,91.302z"/>
<path style="fill:#AAA493;" d="M230.879,70.983h-6.174c-6.201,5.363-10.148,13.442-10.148,22.492v13.25
	c0,1.14,0.077,2.265,0.199,3.37c5.508-1.806,11.246-4.25,13.514-7.126C233.166,96.765,230.879,70.983,230.879,70.983z"/>
<ellipse style="fill:#5E5E5E;" cx="222.719" cy="93.509" rx="2.938" ry="8.813"/>
<path style="fill:#AAA493;" d="M268.512,70.983h-6.174c0,0-2.283,25.782,2.613,31.986c2.269,2.876,8.006,5.321,13.511,7.126
	c0.123-1.105,0.203-2.23,0.203-3.37v-13.25C278.663,84.425,274.712,76.346,268.512,70.983z"/>
<ellipse style="fill:#5E5E5E;" cx="270.499" cy="93.509" rx="2.938" ry="8.813"/>
<g>
</g>
<g>
</g>
<g>
</g>
<g>
</g>
<g>
</g>
<g>
</g>
<g>
</g>
<g>
</g>
<g>
</g>
<g>
</g>
<g>
</g>
<g>
</g>
<g>
</g>
<g>
</g>
<g>
</g>
</svg>
