<?xml version="1.0" encoding="iso-8859-1"?>
<!-- Generator: Adobe Illustrator 19.0.0, SVG Export Plug-In . SVG Version: 6.00 Build 0)  -->
<svg version="1.1" id="Layer_1" xmlns="http://www.w3.org/2000/svg" xmlns:xlink="http://www.w3.org/1999/xlink" x="0px" y="0px"
	 viewBox="0 0 496.158 496.158" style="enable-background:new 0 0 496.158 496.158;" xml:space="preserve">
<path style="fill:#22A85B;" d="M248.075,0C111.07,0,0,111.062,0,248.083c0,137.005,111.07,248.075,248.075,248.075
	c137.013,0,248.083-111.07,248.083-248.075C496.158,111.062,385.088,0,248.075,0z"/>
<g>
	<path style="fill:#BA6D20;" d="M251.48,209.149c-86.98,0-111.514,93.788-111.514,155.374c0,33.203,11.982,63.928,37.531,63.928
		c42.759,0,46.337-38.65,74.728-38.65c31.306,0,26.764,35.529,79.103,35.529c22.726,0,31.666-30.521,31.666-60.806
		C362.994,302.937,331.77,209.149,251.48,209.149z"/>
	<path style="fill:#BA6D20;" d="M143.573,175.365c-18.087-22.859-46.063-30.866-62.485-17.872
		c-16.42,12.991-15.072,42.055,3.008,64.915c18.092,22.864,46.066,30.866,62.489,17.879
		C163.007,227.289,161.659,198.228,143.573,175.365z"/>
	<path style="fill:#BA6D20;" d="M418.01,157.493c-16.422-12.994-44.398-4.988-62.483,17.872
		c-18.086,22.864-19.437,51.924-3.013,64.922c16.422,12.987,44.396,4.984,62.487-17.879
		C433.083,199.548,434.43,170.484,418.01,157.493z"/>
	<path style="fill:#BA6D20;" d="M310.767,78.41c-20.817-2.903-41.948,19.608-47.202,50.279c-5.25,30.679,7.371,57.907,28.194,60.81
		c20.815,2.911,41.946-19.608,47.2-50.283C344.209,108.537,331.59,81.317,310.767,78.41z"/>
	<path style="fill:#BA6D20;" d="M238.525,128.689c-5.252-30.67-26.384-53.182-47.198-50.279
		c-20.823,2.907-33.442,30.127-28.194,60.806c5.254,30.675,26.383,53.194,47.202,50.283
		C231.156,186.596,243.776,159.368,238.525,128.689z"/>
</g>
<g>
	<path style="fill:#9B581C;" d="M366.734,359.306c0-61.59-31.223-155.374-111.514-155.374c-42.835,0-70.501,22.76-87.575,53.206
		c17.287-27.109,43.948-46.679,83.658-46.679c80.29,0,111.514,93.787,111.514,155.374c0,16.027-2.538,32.078-8.266,43.68
		C363.078,397.983,366.734,378.616,366.734,359.306z"/>
	<path style="fill:#9B581C;" d="M147.314,170.14c-18.088-22.86-46.064-30.862-62.485-17.872c-3.72,2.945-6.48,6.748-8.389,11.078
		c1.318-1.66,2.777-3.206,4.472-4.548c16.422-12.995,44.398-4.988,62.486,17.872c13.989,17.684,17.916,39.044,11.401,53.84
		C166.246,216.096,163.534,190.647,147.314,170.14z"/>
	<path style="fill:#9B581C;" d="M421.751,152.268c-16.422-12.991-44.398-4.988-62.484,17.872c-2.741,3.466-5.049,7.084-7.019,10.756
		c0.975-1.427,2.004-2.838,3.102-4.227c18.086-22.86,46.062-30.866,62.483-17.872c13.932,11.021,15.026,33.604,4.007,54.162
		C436.916,190.857,437.175,164.475,421.751,152.268z"/>
	<path style="fill:#9B581C;" d="M314.508,73.185c-14.811-2.062-29.751,8.775-39.048,26.226c9.284-13.557,22.263-21.49,35.131-19.696
		c20.823,2.911,33.442,30.132,28.192,60.806c-1.517,8.855-4.386,16.988-8.158,24.069c5.736-8.374,10.068-18.882,12.075-30.598
		C347.951,103.32,335.331,76.096,314.508,73.185z"/>
	<path style="fill:#9B581C;" d="M242.267,123.468c-5.252-30.671-26.385-53.183-47.198-50.283
		c-10.03,1.404-18.126,8.48-23.269,18.835c4.98-6.755,11.594-11.224,19.352-12.306c20.813-2.903,41.946,19.612,47.198,50.283
		c2.722,15.897,0.61,30.839-4.923,41.978C241.813,160.6,245.56,142.716,242.267,123.468z"/>
	<path style="fill:#9B581C;" d="M335.069,420.108c-52.339,0-47.797-35.525-79.103-35.525c-28.391,0-31.97,38.643-74.728,38.643
		c-25.549,0-37.532-30.721-37.532-63.92c0-31.26,6.342-70.793,23.938-102.168c-20.578,32.266-27.855,75.224-27.855,108.695
		c0,33.203,11.983,63.923,37.532,63.923c42.758,0,46.337-38.646,74.728-38.646c31.306,0,26.763,35.529,79.103,35.529
		c10.695,0,18.306-6.809,23.399-17.126C349.704,416.065,343.305,420.108,335.069,420.108z"/>
	<path style="fill:#9B581C;" d="M150.327,235.062c-16.424,12.99-44.397,4.988-62.489-17.875
		c-13.983-17.684-17.91-39.044-11.397-53.84c-11.445,14.414-8.733,39.867,7.48,60.37c18.091,22.859,46.065,30.862,62.489,17.875
		c3.72-2.941,6.482-6.744,8.389-11.082C153.48,232.17,152.023,233.723,150.327,235.062z"/>
	<path style="fill:#9B581C;" d="M418.743,217.186c-18.091,22.863-46.065,30.866-62.487,17.875
		c-13.934-11.024-15.025-33.609-4.007-54.166c-15.077,22.11-15.337,48.489,0.09,60.695c16.422,12.987,44.396,4.984,62.487-17.875
		c2.741-3.466,5.047-7.084,7.016-10.757C420.868,214.39,419.839,215.798,418.743,217.186z"/>
	<path style="fill:#9B581C;" d="M295.501,184.278c-20.823-2.907-33.444-30.135-28.194-60.81c1.517-8.848,4.384-16.98,8.154-24.057
		c-5.734,8.37-10.064,18.874-12.071,30.587c-5.25,30.675,7.371,57.903,28.194,60.806c14.808,2.073,29.746-8.764,39.042-26.214
		C321.344,178.142,308.367,186.076,295.501,184.278z"/>
	<path style="fill:#9B581C;" d="M214.077,184.278c-20.819,2.907-41.948-19.608-47.202-50.287c-2.72-15.898-0.61-30.832,4.925-41.971
		c-8.389,11.376-12.136,29.255-8.842,48.5c5.254,30.675,26.383,53.194,47.202,50.283c10.028-1.4,18.124-8.477,23.267-18.828
		C228.446,178.731,221.832,183.195,214.077,184.278z"/>
</g>
<g>
</g>
<g>
</g>
<g>
</g>
<g>
</g>
<g>
</g>
<g>
</g>
<g>
</g>
<g>
</g>
<g>
</g>
<g>
</g>
<g>
</g>
<g>
</g>
<g>
</g>
<g>
</g>
<g>
</g>
</svg>
