<?xml version="1.0" encoding="iso-8859-1"?>
<!-- Generator: Adobe Illustrator 19.0.0, SVG Export Plug-In . SVG Version: 6.00 Build 0)  -->
<svg version="1.1" id="Layer_1" xmlns="http://www.w3.org/2000/svg" xmlns:xlink="http://www.w3.org/1999/xlink" x="0px" y="0px"
	 viewBox="0 0 473.931 473.931" height="50px" style="enable-background:new 0 0 473.931 473.931;" xml:space="preserve">
<circle style="fill:#E8E8DF;" cx="236.966" cy="236.966" r="236.966"/>
<path style="fill:#6B7D35;" d="M224.438,288.291c-1.111-1.953-1.583-3.061-2.256-4.513c-0.614-1.366-1.167-2.709-1.691-4.049
	c-1.048-2.675-1.964-5.336-2.799-7.996c-1.658-5.321-2.963-10.645-4.022-15.981c-2.095-10.668-3.162-21.354-3.476-31.97
	c-0.15-5.31-0.109-10.6,0.105-15.865c0.202-5.242,0.655-10.9,1.684-16.348c1.893-10.982,6.589-21.957,13.077-30.701
	c6.398-8.831,13.437-15.689,17.871-23.869c4.565-8.09,6.6-17.594,6.874-27.416c0.247-9.74-1.295-19.708-3.813-29.399
	c-2.563-9.702-6.02-19.251-10.473-28.363c5.373,8.614,9.841,17.822,13.47,27.412c3.577,9.605,6.267,19.663,7.098,30.203
	c0.842,10.376-0.12,21.504-4.46,31.715c-4.239,10.26-11.087,18.563-15.637,26.754c-4.688,8.179-7.18,16.688-7.787,25.833
	c-0.341,4.599-0.202,9.096,0.135,13.979c0.326,4.864,0.812,9.702,1.467,14.496c1.317,9.579,3.311,18.989,6.114,27.988
	c1.403,4.494,3.008,8.887,4.834,13.081c0.913,2.095,1.882,4.138,2.9,6.088c0.509,0.973,1.033,1.923,1.56,2.818
	c0.471,0.804,1.179,1.946,1.392,2.151L224.438,288.291z"/>
<polygon style="fill:#B7C133;" points="279.233,422.808 190.295,422.808 168.061,282.735 301.474,282.735 "/>
<polygon style="fill:#77913B;" points="301.313,296.407 165.247,296.407 161.191,275.061 305.369,275.061 "/>
<g>
	<path style="fill:#B7C133;" d="M312.834,152.51c-16.441-8.034-19.902-19.558-33.347-20.411
		c-10.062-0.644-18.742,6.993-19.375,17.059c-0.644,10.062,6.986,18.739,17.051,19.379
		C295.723,169.715,312.834,152.51,312.834,152.51z"/>
	<path style="fill:#B7C133;" d="M294.589,77.612c-12.396-2.26-16.838-9.253-25.904-7.315c-6.788,1.448-11.121,8.127-9.665,14.911
		c1.448,6.784,8.123,11.121,14.915,9.665C286.447,92.201,294.589,77.612,294.589,77.612z"/>
	<path style="fill:#B7C133;" d="M309.204,231.611c-20.606-6.466-26.686-19.292-42.521-17.908
		c-11.854,1.033-20.617,11.476-19.581,23.326c1.025,11.854,11.472,20.621,23.326,19.584
		C292.284,254.709,309.204,231.611,309.204,231.611z"/>
	<path style="fill:#B7C133;" d="M162.793,144.829c18.013-3.214,24.505-13.351,37.665-10.488c9.852,2.14,16.108,11.869,13.953,21.721
		c-2.137,9.852-11.858,16.101-21.71,13.957C174.534,166.067,162.793,144.829,162.793,144.829z"/>
	<path style="fill:#B7C133;" d="M202.893,88.216c12.396-2.264,16.838-9.257,25.904-7.319c6.788,1.452,11.121,8.127,9.665,14.911
		c-1.448,6.788-8.123,11.121-14.915,9.669C211.035,102.801,202.893,88.216,202.893,88.216z"/>
	<path style="fill:#B7C133;" d="M137.768,212.588c20.606-6.466,26.686-19.293,42.521-17.908
		c11.854,1.033,20.617,11.476,19.581,23.326c-1.025,11.854-11.472,20.621-23.326,19.584
		C154.688,235.686,137.768,212.588,137.768,212.588z"/>
</g>
<g>
	<path style="fill:#6B7D35;" d="M250.241,104.391c0.363-2.402,0.909-4.58,1.601-6.795c0.692-2.196,1.564-4.34,2.66-6.376
		c1.119-2.017,2.47-3.948,4.228-5.459c1.721-1.542,3.906-2.526,6.103-2.758c-2.125,0.636-3.94,1.931-5.227,3.603
		c-1.325,1.646-2.204,3.596-2.874,5.59c-0.644,2.013-1.074,4.09-1.328,6.193c-0.254,2.08-0.378,4.266-0.307,6.256v0.022
		c0.049,1.347-1.007,2.481-2.354,2.529c-1.347,0.049-2.481-1.007-2.529-2.354C250.208,104.694,250.219,104.534,250.241,104.391z"/>
	<path style="fill:#6B7D35;" d="M250.361,115.875c-1.104-4.385-2.784-8.89-5.07-12.935c-2.309-3.974-5.392-7.918-10.088-9.339
		c2.398,0.284,4.733,1.332,6.728,2.795c2.024,1.448,3.775,3.244,5.358,5.156c1.572,1.927,2.978,3.981,4.251,6.114
		c1.272,2.152,2.417,4.307,3.442,6.694c0.535,1.239-0.037,2.675-1.276,3.207s-2.675-0.041-3.207-1.28
		c-0.052-0.116-0.09-0.236-0.123-0.355L250.361,115.875z"/>
	<path style="fill:#6B7D35;" d="M232.79,155.59c2.87-2.481,5.691-4.299,8.786-5.998c3.068-1.65,6.309-2.993,9.68-3.854
		c3.36-0.857,6.862-1.22,10.267-0.876c3.405,0.333,6.672,1.392,9.542,2.997c-6.297-2.155-12.984-1.291-18.563,1.407
		c-2.818,1.328-5.429,3.05-7.835,5.01c-2.361,1.934-4.696,4.224-6.417,6.432l-0.034,0.041c-1.28,1.639-3.644,1.931-5.283,0.651
		s-1.927-3.644-0.647-5.28C232.434,155.93,232.614,155.743,232.79,155.59z"/>
	<path style="fill:#6B7D35;" d="M225.579,251.813c2.335-2.986,4.748-5.321,7.457-7.585c2.69-2.215,5.613-4.157,8.748-5.654
		c3.132-1.493,6.499-2.526,9.904-2.847c3.405-0.333,6.81,0.071,9.942,1.093c-6.597-0.894-12.988,1.246-17.938,4.973
		c-2.507,1.848-4.737,4.045-6.713,6.432c-1.946,2.354-3.79,5.055-5.051,7.555l-0.022,0.049c-0.935,1.856-3.199,2.597-5.055,1.661
		c-1.856-0.935-2.597-3.199-1.661-5.055C225.295,252.213,225.437,251.996,225.579,251.813z"/>
	<path style="fill:#6B7D35;" d="M216.364,236.131c-1.261-2.499-3.109-5.201-5.051-7.555c-1.976-2.387-4.209-4.584-6.713-6.432
		c-4.95-3.731-11.345-5.867-17.938-4.973c3.128-1.021,6.537-1.426,9.942-1.093c3.409,0.322,6.773,1.351,9.904,2.847
		c3.136,1.497,6.058,3.439,8.748,5.654c2.709,2.264,5.126,4.599,7.457,7.585c1.28,1.639,0.988,4-0.647,5.28
		c-1.639,1.28-4.004,0.988-5.283-0.647c-0.15-0.191-0.277-0.393-0.385-0.599L216.364,236.131z"/>
	<path style="fill:#6B7D35;" d="M220.644,178.882c-0.019-0.056-0.064-0.516-0.266-1.471c-0.187-0.965-0.546-2.361-1.044-4.026
		c-0.546-1.639-1.194-3.585-2.14-5.545c-0.891-2.002-2.08-3.996-3.401-5.931c-0.737-0.887-1.384-1.893-2.2-2.698
		c-0.804-0.816-1.553-1.702-2.44-2.35c-0.849-0.707-1.673-1.414-2.571-1.901c-0.872-0.524-1.676-1.111-2.526-1.414
		c-0.834-0.367-1.598-0.7-2.275-0.995c-0.715-0.195-1.34-0.363-1.856-0.501c-1.044-0.281-1.639-0.442-1.639-0.442
		s0.617,0.045,1.691,0.127c0.546,0.041,1.209,0.09,1.968,0.15c0.748,0.168,1.59,0.359,2.507,0.565
		c0.95,0.157,1.882,0.587,2.915,0.969c1.059,0.344,2.065,0.913,3.124,1.497c1.104,0.531,2.077,1.31,3.132,2.039
		c1.066,0.722,1.964,1.65,2.975,2.492c1.845,1.822,3.592,3.79,4.988,5.796c1.467,1.972,2.589,3.963,3.551,5.684
		c0.909,1.744,1.616,3.233,2.058,4.325c0.464,1.089,0.7,1.83,0.688,1.77c0.516,2.002-0.688,4.041-2.69,4.557
		C223.192,182.097,221.157,180.884,220.644,178.882z"/>
</g>
<g>
</g>
<g>
</g>
<g>
</g>
<g>
</g>
<g>
</g>
<g>
</g>
<g>
</g>
<g>
</g>
<g>
</g>
<g>
</g>
<g>
</g>
<g>
</g>
<g>
</g>
<g>
</g>
<g>
</g>
</svg>
