<?xml version="1.0" encoding="iso-8859-1"?>
<!-- Generator: Adobe Illustrator 19.0.0, SVG Export Plug-In . SVG Version: 6.00 Build 0)  -->
<svg version="1.1" id="Layer_1" xmlns="http://www.w3.org/2000/svg" xmlns:xlink="http://www.w3.org/1999/xlink" x="0px" y="0px"
	 viewBox="0 0 496.158 496.158" style="enable-background:new 0 0 496.158 496.158;" xml:space="preserve">
<path style="fill:#22A85B;" d="M248.075,0C111.07,0,0,111.062,0,248.083c0,137.005,111.07,248.075,248.075,248.075
	c137.013,0,248.083-111.07,248.083-248.075C496.158,111.062,385.088,0,248.075,0z"/>
<rect x="231.489" y="102.319" style="fill:#FCC677;" width="33.3" height="232.09"/>
<rect x="249.769" y="102.319" style="fill:#F9CC91;" width="15.01" height="232.09"/>
<rect x="260.049" y="102.319" style="fill:#F7D0A1;" width="4.732" height="232.09"/>
<rect x="231.489" y="102.319" style="fill:#EFB76C;" width="9.792" height="232.09"/>
<path style="fill:#D19433;" d="M307.822,320.066H187.793c-5.5,0-9.953,4.46-9.953,9.957v89.052c0,5.497,4.453,9.957,9.953,9.957
	h120.029c5.497,0,9.954-4.46,9.954-9.957v-89.052C317.775,324.527,313.319,320.066,307.822,320.066z"/>
<path style="fill:#C68932;" d="M187.793,320.066c-5.5,0-9.953,4.46-9.953,9.957v89.052c0,5.497,4.453,9.957,9.953,9.957h59.36
	V320.066H187.793z"/>
<g>
	<ellipse style="fill:#AA701B;" cx="246.499" cy="378.139" rx="37.21" ry="26.44"/>
	<ellipse style="fill:#AA701B;" cx="246.499" cy="378.139" rx="37.21" ry="26.44"/>
	<ellipse style="fill:#AA701B;" cx="246.499" cy="378.139" rx="37.21" ry="26.44"/>
	<ellipse style="fill:#AA701B;" cx="246.499" cy="378.139" rx="37.21" ry="26.44"/>
	<ellipse style="fill:#AA701B;" cx="246.499" cy="378.139" rx="37.21" ry="26.44"/>
	<ellipse style="fill:#AA701B;" cx="246.499" cy="378.139" rx="37.21" ry="26.44"/>
	<g>
		<path id="SVGCleanerId_0" style="fill:#AA701B;" d="M246.503,351.701c-20.553,0-37.212,11.839-37.212,26.44
			c0,0,16.659,15.668,37.212,15.668c20.549,0,37.212-15.668,37.212-15.668C283.715,363.54,267.052,351.701,246.503,351.701z"/>
	</g>
	<g>
		<path id="SVGCleanerId_0_1_" style="fill:#AA701B;" d="M246.503,351.701c-20.553,0-37.212,11.839-37.212,26.44
			c0,0,16.659,15.668,37.212,15.668c20.549,0,37.212-15.668,37.212-15.668C283.715,363.54,267.052,351.701,246.503,351.701z"/>
	</g>
	<g>
		<path id="SVGCleanerId_0_2_" style="fill:#AA701B;" d="M246.503,351.701c-20.553,0-37.212,11.839-37.212,26.44
			c0,0,16.659,15.668,37.212,15.668c20.549,0,37.212-15.668,37.212-15.668C283.715,363.54,267.052,351.701,246.503,351.701z"/>
	</g>
	<g>
		<path id="SVGCleanerId_0_3_" style="fill:#AA701B;" d="M246.503,351.701c-20.553,0-37.212,11.839-37.212,26.44
			c0,0,16.659,15.668,37.212,15.668c20.549,0,37.212-15.668,37.212-15.668C283.715,363.54,267.052,351.701,246.503,351.701z"/>
	</g>
	<g>
		<path id="SVGCleanerId_0_4_" style="fill:#AA701B;" d="M246.503,351.701c-20.553,0-37.212,11.839-37.212,26.44
			c0,0,16.659,15.668,37.212,15.668c20.549,0,37.212-15.668,37.212-15.668C283.715,363.54,267.052,351.701,246.503,351.701z"/>
	</g>
</g>
<g>
	<path id="SVGCleanerId_0_5_" style="fill:#875513;" d="M246.503,351.701c-20.553,0-37.212,11.839-37.212,26.44
		c0,0,16.659,15.668,37.212,15.668c20.549,0,37.212-15.668,37.212-15.668C283.715,363.54,267.052,351.701,246.503,351.701z"/>
</g>
<path style="fill:#D19433;" d="M347.317,202.149H227.293c-5.501,0-9.958,3.121-9.958,6.97v10.236c0,3.848,4.457,6.969,9.958,6.969
	h120.024c5.497,0,9.958-3.121,9.958-6.969v-10.236C357.275,205.27,352.814,202.149,347.317,202.149z"/>
<path style="fill:#BF832C;" d="M217.335,214.505v4.851c0,3.848,4.457,6.969,9.958,6.969h120.024c5.497,0,9.958-3.121,9.958-6.969
	v-4.851H217.335z"/>
<path style="fill:#D19433;" d="M265.056,87.575H145.031c-5.497,0-9.957,3.122-9.957,6.97v10.236c0,3.848,4.46,6.97,9.957,6.97
	h120.025c5.5,0,9.957-3.122,9.957-6.97V94.545C275.013,90.697,270.556,87.575,265.056,87.575z"/>
<path style="fill:#BF832C;" d="M135.074,99.931v4.85c0,3.848,4.46,6.97,9.957,6.97h120.025c5.5,0,9.957-3.122,9.957-6.97v-4.85
	H135.074z"/>
<g>
</g>
<g>
</g>
<g>
</g>
<g>
</g>
<g>
</g>
<g>
</g>
<g>
</g>
<g>
</g>
<g>
</g>
<g>
</g>
<g>
</g>
<g>
</g>
<g>
</g>
<g>
</g>
<g>
</g>
</svg>
