<?xml version="1.0" encoding="utf-8"?>
<!-- Generator: Adobe Illustrator 18.1.1, SVG Export Plug-In . SVG Version: 6.00 Build 0)  -->
<!DOCTYPE svg PUBLIC "-//W3C//DTD SVG 1.1//EN" "http://www.w3.org/Graphics/SVG/1.1/DTD/svg11.dtd">
<svg version="1.1" id="artwork" xmlns="http://www.w3.org/2000/svg" xmlns:xlink="http://www.w3.org/1999/xlink" x="0px" y="0px"
	 viewBox="0 0 220.1 215.2" height="100px" enable-background="new 0 0 220.1 215.2" xml:space="preserve">
	 <title>Pet Sitters International</title>
<g>
	<g>
		<rect x="19.6" y="203.8" fill="#393A96" width="2.8" height="11.2"/>
		<path fill="#393A96" d="M20.9,198.5c-0.9,0-1.7,0.6-1.7,1.7c0,0.9,0.8,1.7,1.7,1.7c1.1,0,1.7-0.9,1.7-1.7
			C22.6,199.1,22,198.5,20.9,198.5z"/>
		<path fill="#393A96" d="M36.3,203.6c-1.2,0-2.2,0.5-2.9,1v-0.8h-3l0.2,0.6c0.2,0.7,0.2,1.5,0.2,2.7v7.9h2.8v-6.7
			c0-0.3,0-0.4,0-0.4l0.1-0.1l0-0.2c0.2-0.8,0.9-1.6,1.9-1.6c0.8,0,1.9,0.3,1.9,2.7v6.3h2.8v-6.5C40.4,204.9,38.2,203.6,36.3,203.6z
			"/>
		<path fill="#393A96" d="M53.5,212.7c-0.1,0.1-0.4,0.1-0.6,0.1c-0.3,0-0.9,0-0.9-1.5v-5.1h2.6v-2.4h-2.6v-2.6l-2.8,0.9v1.7h-1.6
			v2.4h1.6v5.1c0,0.9,0.1,2.2,0.7,3.1l0.1,0.1c0.5,0.5,1.4,0.7,2.4,0.7c0.8,0,1.5,0,2-0.3l0.3-0.2l-0.4-2.8L53.5,212.7z"/>
		<path fill="#393A96" d="M66.4,203.6c-3.2,0-5.3,2.5-5.3,6.1c0,3.4,2.1,5.5,5.5,5.5c1.8,0,3-0.2,3.7-0.7l0.3-0.2l-0.7-2.1l-0.5,0.2
			c-0.6,0.2-1.3,0.4-2.6,0.4c-1,0-2.6-0.3-2.8-2.6h7.2v-1.3C71.1,206.3,69.6,203.6,66.4,203.6z M64,208c0.2-0.9,0.7-2.2,2.2-2.2
			c1.4,0,1.9,1.2,2,2.2H64z"/>
		<path fill="#393A96" d="M81.3,204.6v-0.8h-2.9l0.1,0.6c0.2,0.9,0.2,1.9,0.2,3.1v7.5h2.8v-6.6c0.6-1.9,1.7-1.9,2.1-1.9h1.1v-2.8
			h-0.9C82.8,203.6,81.9,204,81.3,204.6z"/>
		<path fill="#393A96" d="M97.5,203.6c-1.3,0-2.4,0.5-3.1,1.1v-0.9h-2.6V215h2.8l0-6.7c0,0,0-0.2,0.1-0.2c0-0.1,0.1-0.3,0.1-0.4
			c0.3-0.7,0.9-1.6,2.1-1.6c1.1,0,1.7,0.9,1.7,2.7v6.3h3v-6.5C101.6,204.9,99.5,203.6,97.5,203.6z"/>
		<path fill="#393A96" d="M118,212.1v-3.8c0-3.9-2.3-4.7-4.3-4.7c-1.7,0-3,0.5-3.6,0.9l-0.4,0.2l0.8,2.7l0.6-0.6
			c0.5-0.5,1.5-0.6,2.2-0.6c1.4,0,1.8,0.6,1.9,1.6c-5.1,0.1-6.2,2.4-6.2,4.3c0,1.6,1.2,3.3,3.7,3.3c1.1,0,2.1-0.3,2.8-0.9l0.1,0.7
			h2.6v-0.5c0-0.3,0-0.7-0.1-1.1C118,213,118,212.5,118,212.1z M115.1,209.9v1.7c-0.4,0.7-1,1.4-2.1,1.4c-0.5,0-1.3-0.4-1.3-1.3
			C111.8,210.6,112.9,209.9,115.1,209.9z"/>
		<path fill="#393A96" d="M129.4,201.2l-2.8,0.9v1.7h-1.6v2.4h1.6v5.1c0,1.5,0.3,2.5,1,3.2c0.5,0.5,1.4,0.8,2.4,0.8
			c0.9,0,1.3,0,1.8-0.3l0.3-0.1v-2.6l-0.8,0.4c-0.3,0.1-0.4,0.1-1,0.1c-0.3,0-0.9,0-0.9-1.5v-5.1h2.8v-2.4h-2.8V201.2z"/>
		<path fill="#393A96" d="M140.8,198.5c-0.9,0-1.7,0.6-1.7,1.7c0,0.9,0.8,1.7,1.7,1.7c1.1,0,1.7-0.9,1.7-1.7
			C142.5,199.1,141.9,198.5,140.8,198.5z"/>
		<rect x="139.5" y="203.8" fill="#393A96" width="2.8" height="11.2"/>
		<path fill="#393A96" d="M155.4,203.6c-3.2,0-5.5,2.4-5.5,5.9c0,3.4,2.3,5.7,5.5,5.7c2.7,0,5.5-1.8,5.5-5.9
			C160.9,206,158.6,203.6,155.4,203.6z M157.9,209.3c0,2.1-1,3.5-2.5,3.5c-1.5,0-2.7-1.4-2.7-3.3c0-1.7,0.8-3.5,2.7-3.5
			C157.3,206.1,157.9,208.2,157.9,209.3z"/>
		<path fill="#393A96" d="M174.1,203.6c-1.3,0-2.3,0.5-3,1.1l-0.1-0.9h-2.6V215h2.8v-6.7c0,0,0-0.2,0.1-0.2c0-0.1,0.1-0.3,0.1-0.4
			c0.3-0.8,1.2-1.6,2.1-1.6c1.1,0,1.7,0.9,1.7,2.7v6.3h3v-6.5C178.2,204.9,176.1,203.6,174.1,203.6z"/>
		<path fill="#393A96" d="M194.6,212.1v-3.8c0-3.9-2.3-4.7-4.3-4.7c-1.7,0-3,0.5-3.6,0.9l-0.4,0.2l0.7,2.5l0.6-0.5
			c0.6-0.4,1.4-0.7,2.3-0.7c1.4,0,1.8,0.6,1.9,1.6c-5.1,0.1-6.2,2.4-6.2,4.3c0,1.6,1.4,3.3,3.7,3.3c1.1,0,2.1-0.3,2.8-0.9l0.1,0.7
			h2.6v-0.5c0-0.3,0-0.7-0.1-1.1C194.7,213,194.6,212.5,194.6,212.1z M191.8,209.9v1.7c-0.4,0.7-1,1.4-2.1,1.4
			c-0.5,0-1.1-0.4-1.1-1.3C188.6,211.3,188.6,210,191.8,209.9z"/>
		<rect x="202.9" y="199" fill="#393A96" width="2.8" height="16"/>
	</g>
	<g>
		<path fill="#393A96" d="M93.4,66.7c-1.1-3.7-3.1-7.1-6-10.2c-2.8-3-6.3-5.4-10.5-7.1c-4.5-1.8-9.6-2.7-15-2.7H19.7V139h27.5v-29.7
			h14.6c5.7,0,10.8-0.9,15-2.5c4.3-1.7,7.9-4.2,10.5-7.2c2.8-2.8,4.8-6.3,6-10.2c1.3-3.6,1.9-7.4,1.9-11.2
			C95.3,74.1,94.6,70.3,93.4,66.7z"/>
		<path fill="#393A96" d="M169.6,93.5c-2.2-3.5-5.1-6.5-8.5-8.5c-3.3-2.2-6.2-3.6-9.3-4.4c-2-0.6-4.6-1.4-6.9-1.8
			c-2.9-0.8-5.4-1.4-7.6-2c-1.8-0.5-3.4-0.9-4.8-1.3l-0.5-0.1c-2.7-0.8-5-1.5-6.4-2.2c-0.8-0.4-1.5-0.8-1.9-1.2
			c-0.1-0.3-0.2-0.8-0.2-1.3c0-1,0.2-1.6,0.3-1.8c0.6-0.9,1.1-1.2,1.6-1.5l0.3-0.2c0.7-0.4,1.5-0.8,2.4-1c0.9-0.2,2-0.2,3.3-0.2
			c2.1,0,3.8,0.2,5.5,0.5c1.5,0.3,2.5,0.6,3.4,1.1c1,0.8,1.6,1.4,2.1,2.3c0.6,1.1,1,2.5,1.1,4.4l0.3,4.3h26.5V74
			c0-5.7-1.1-10.5-3.3-14.5c-1.9-3.8-4.9-7.1-8.8-9.9c-3.1-2.3-7-4.1-12-5.5l-0.2-0.1c-4.6-1.1-9.2-1.6-13.6-1.6
			c-3.8,0-7.8,0.5-12.3,1.6l-0.3,0.1c-4.5,1.3-8.2,3.1-11.3,5.5c-3.5,2.4-6.3,5.5-8.5,9.2l-0.1,0.2c-2.1,3.9-3.1,8.4-3.1,13.2
			c0,4.3,0.8,8.2,2.5,11.7l0.2,0.3c1.8,3.2,4.1,5.9,6.9,8c2.8,2.2,5.8,3.9,9.1,5.1c3.2,1.2,6.3,2.2,9.5,2.9c3.2,0.9,6.2,1.7,9.1,2.4
			l0.3,0.1c1.7,0.3,3.2,0.8,4.7,1.3l-7.4,11.1c-1-0.1-1.9-0.2-2.7-0.4c-1.8-0.6-3.3-1.2-4.4-2l-0.3-0.2c-0.8-0.5-1.6-1.5-2.5-2.9
			c-0.6-1.5-1-3.2-1-5.1v-4.6H94.3l-0.2,4.5c-0.2,6,0.9,11.2,3.3,15.6c2.2,4.4,5.3,8.1,9.1,10.8c3.9,2.8,8.2,4.8,13,6.1
			c4.6,1.2,9.5,1.8,14.5,1.8c6,0,11.4-0.8,16.3-2.2c4.9-1.5,9.1-3.6,12.5-6.4c3.3-2.7,5.9-6,7.8-10c1.8-4,2.6-8.1,2.6-12.6
			C173.2,101.9,172,97.3,169.6,93.5z"/>
		<rect x="176" y="29.5" fill="#393A96" width="27.5" height="109.6"/>
	</g>
	<path fill="#FFFFFF" d="M146.1,101.2c-1.5-3.9-6.6-1.3-8.4-0.1c-1.6-1.3-3.5-2.1-5.6-2.1c-2.2,0-4.1,0.8-5.8,2.2
		c-1.5-1.1-7.1-4-8.6,0c-1.5,4.2-2.4,11.3-0.9,12.8c1,1,3.8-0.9,5.6-2.5c0.4,5.9,4.6,10.6,9.8,10.6c5.1,0,9.3-4.6,9.8-10.4
		c1.8,1.5,4.4,3.3,5.4,2.3C148.5,112.4,147.6,105.4,146.1,101.2z"/>
	<path fill="#FFFFFF" d="M142.4,65.2l-0.8-6.4l-3.4,3.4c-1.5-0.6-3.1-1-4.8-1c-1.3,0-2.6,0.2-3.7,0.6l-3.7-3.5l-1.5,6.9
		c-2,2.1-3.2,5-3.2,8.1c0,6.4,5.5,11.8,12,11.8c6.6,0,12-5.3,12-11.8C145.5,70.2,144.3,67.3,142.4,65.2z"/>
	<path fill="#393A96" d="M198.9,17.7c-0.7,0.5-1.4,0.8-2,0.9c0.1,2.4-0.7,4.7-2.4,6.4c-3.5,3.3-9.3,2.8-13.2-1.2
		c-3.4-3.4-4.1-8.3-2.1-11.7c-1.5-0.5-2.7-1.5-3.5-2.8l-6.7-2.4l6.1-2.3c0.1-0.3,0.1-0.6,0.2-0.8c1-2.2,3.3-3.9,5.9-3.9
		c3.3,0,6.1,2.8,6.1,6.3c0,0.6-0.1,1.3-0.3,1.8c1.4,0.1,2.7,0.5,4.1,1.2L204.4,1C204.4,1,205.2,13.4,198.9,17.7z M182.1,4.9
		c0-1.2-0.9-2-2-2c-0.9,0-1.8,0.9-1.8,2c0,0.9,0.9,1.8,1.8,1.8C181.3,6.6,182.1,5.8,182.1,4.9"/>
	<polygon fill="#393A96" points="1.3,57.1 0,53.5 111.4,12.1 220.1,53.5 218.7,57.1 111.3,16.2 	"/>
	<path fill="#E46B1F" d="M18.5,173.1c-0.4,4.7-0.2,8.9-0.2,13.5c0,1.3-0.9,2.9-2.4,2.9c-1.3,0-2-1.1-2-2.4c0-4.7,0.2-9.3,0.2-14
		c0-4.4,1.1-9.1,1.1-13.7c0-1.1-0.4-2.4-0.4-3.5c0-1.3,1.1-2.9,2.7-2.9c1.1,0,1.8,1.1,2.2,0.9c5.1-0.4,10.2-1.1,15.3-1.1
		c2.2,0,8.2-0.2,8.2,3.3C43.1,162.7,23.8,170.9,18.5,173.1L18.5,173.1z M36.7,156.2c-5.8,0-11.3,1.6-17.1,1.8
		c-0.4,3.5-0.4,7.1-0.7,10.4c3.3-1.3,19.3-8,19.3-11.5C38.3,156.2,36.9,156.2,36.7,156.2"/>
	<path fill="#E46B1F" d="M70.5,169.3c-2.4,0-4.9,0.4-7.3,0.9c-0.7,6.2-0.7,12-0.7,18.2c0,0.9-0.7,2-1.8,2c-2,0-2.9-2-2.9-3.5
		c0-5.3,0.7-10.4,1.3-15.7c-1.6,0.4-6.2,3.1-6.9,3.1c-0.9,0-2-1.3-2-2.2c0-2.7,7.3-4.4,9.3-5.1c0.7-3.5,1.1-7.1,1.1-10.9
		c0-1.3,0.2-2.7,1.8-2.7c2,0,2.2,3.1,2.2,4.7c0,2.7-0.7,5.5-0.9,8.2c1.8-0.2,3.5-0.4,5.5-0.4c1.3,0,4.7-0.2,4.7,2
		C74.1,170,72.1,169.3,70.5,169.3"/>
	<path fill="#E46B1F" d="M96.8,190.1h-0.4c-0.2,1.3-1.3,2-2.7,2c-1.6,0-3.3-0.7-3.3-2.2c0-3.5,16.2-6.2,16.2-11.5
		c0-7.8-24.8-4.2-24.8-12.6c0-7.3,12.9-12.9,19.1-12.9c2,0,6,1.3,6,3.8c0,1.1-1.1,2-2.2,2c-0.9,0-2.2-1.1-3.1-1.6
		c-3.3,0-15.1,3.8-15.1,7.8c0,4.7,24.4,3.1,24.4,12.9C110.8,184.1,101.5,187.7,96.8,190.1"/>
	<path fill="#E46B1F" d="M118.8,156c-0.7,1.5-1.1,2.2-1.3,4c-0.2,0.4-0.2,0.9-0.4,1.1c-0.4,0.4-1.1,0.7-1.6,0.7
		c-1.1,0-1.6-1.1-1.6-2c0-1.8,0.9-3.5,1.3-5.1c0.4-1.3,0.7-2.4,2-2.4c1.3,0,2,1.1,2,2.2C119.2,154.9,119,155.6,118.8,156L118.8,156z
		 M117.5,183.5c0,1.1,0.7,2,0.7,3.1c0,1.1-0.9,2.4-2,2.4c-2.4,0-2.4-2.9-2.4-4.7c0-3.5,0.2-6.9,0.4-10.2c0-1.8-0.2-6.2,2.2-6.2
		c1.6,0,2.4,1.1,2.4,2.4C118.8,174.9,117.5,179.3,117.5,183.5"/>
	<path fill="#E46B1F" d="M140.4,169.3c-2.4,0-4.9,0.4-7.3,0.9c-0.9,6.2-0.9,12-0.9,18.2c0,0.9-0.4,2-1.6,2c-2,0-2.9-2-2.9-3.5
		c0-5.3,0.7-10.4,1.3-15.7c-1.8,0.4-6.2,3.1-6.9,3.1c-1.1,0-2-1.3-2-2.2c0-2.7,7.3-4.4,9.3-5.1c0.7-3.5,1.1-7.1,1.1-10.9
		c0-1.3,0.2-2.7,1.8-2.7c2,0,2.2,3.1,2.2,4.7c0,2.7-0.7,5.5-0.9,8.2c1.8-0.2,3.5-0.4,5.3-0.4c1.6,0,4.9-0.2,4.9,2
		C144,170,142,169.3,140.4,169.3"/>
	<path fill="#E46B1F" d="M158.8,169.3c-2.4,0-4.9,0.4-7.3,0.9c-0.9,6.2-0.9,12-0.9,18.2c0,0.9-0.4,2-1.6,2c-2,0-2.9-2-2.9-3.5
		c0-5.3,0.7-10.4,1.3-15.7c-1.8,0.4-6.2,3.1-6.9,3.1c-1.1,0-2-1.3-2-2.2c0-2.7,7.3-4.4,9.3-5.1c0.7-3.5,1.1-7.1,1.1-10.9
		c0-1.3,0.2-2.7,1.8-2.7c2,0,2.2,3.1,2.2,4.7c0,2.7-0.7,5.5-0.9,8.2c1.8-0.2,3.5-0.4,5.3-0.4c1.6,0,4.9-0.2,4.9,2
		C162.3,170,160.3,169.3,158.8,169.3"/>
	<path fill="#E46B1F" d="M202,171.1c-0.7,0-1.1-0.4-1.8-0.4c-2.9,0-9.5,9.1-10.9,11.3c-1.6,2.2-1.1,6.4-1.8,7.3
		c-0.4,0.4-1.1,0.7-1.8,0.7c-1.6,0-2.4-1.1-2.4-2.7c0-3.8,0.9-7.3,0.9-11.1c0-2.4-0.9-5.1-0.9-7.5c0-1.1,1.1-1.8,2-1.8
		c3.5,0,2.9,7.5,2.9,9.8c2.7-3.3,8-10,12.4-10c1.8,0,3.5,0.7,3.5,2.7C204.2,170.4,203.1,171.1,202,171.1"/>
	<path fill="#E46B1F" d="M216,164.9c-0.7,0-1.8-0.4-1.8-0.4c-2.4,0-8.6,7.3-8.6,10c0,4.9,12,3.3,12,9.8c0,1.8-7.8,6.9-9.5,6.9h0.2
		c-1.1-0.2-2.7-0.9-2.7-2c0-2.7,8-3.8,7.8-5.3c-3.8-3.3-11.7-1.8-11.7-9.3c0-4.4,7.8-14,12-14c1.3,0,4.2,1.3,4.2,2.9
		C217.8,164.5,216.9,164.9,216,164.9"/>
	<g>
		
			<rect x="124.4" y="73.3" transform="matrix(0.9659 0.2587 -0.2587 0.9659 23.4226 -30.5031)" fill="#E46B1F" width="6.4" height="0.8"/>
		<rect x="124.5" y="75.1" fill="#E46B1F" width="6.1" height="0.8"/>
		
			<rect x="127.4" y="74.4" transform="matrix(0.2687 0.9632 -0.9632 0.2687 168.0045 -66.4811)" fill="#E46B1F" width="0.8" height="6"/>
		
			<rect x="139" y="70.4" transform="matrix(0.2539 0.9672 -0.9672 0.2539 175.2814 -79.7656)" fill="#E46B1F" width="0.8" height="6.6"/>
		<rect x="136.5" y="75.1" fill="#E46B1F" width="6.1" height="0.8"/>
		
			<rect x="136.2" y="77" transform="matrix(0.9615 0.2747 -0.2747 0.9615 26.6204 -35.2512)" fill="#E46B1F" width="5.8" height="0.8"/>
	</g>
	<g>
		<path fill="#E46B1F" d="M131.9,69.9c0,0.9-0.7,1.6-1.6,1.6s-1.6-0.7-1.6-1.6c0-0.9,0.7-1.6,1.6-1.6S131.9,69,131.9,69.9"/>
		<path fill="#E46B1F" d="M138,69.9c0,0.9-0.7,1.6-1.6,1.6c-0.9,0-1.6-0.7-1.6-1.6c0-0.9,0.7-1.6,1.6-1.6
			C137.3,68.4,138,69,138,69.9"/>
		<path fill="#E46B1F" d="M130.2,105.6c0,0.9-0.7,1.6-1.3,1.6c-0.9,0-1.6-0.7-1.6-1.6c0-0.7,0.7-1.6,1.6-1.6
			C129.6,104,130.2,104.9,130.2,105.6"/>
		<path fill="#E46B1F" d="M136.2,105.6c0,0.9-0.7,1.6-1.6,1.6c-0.9,0-1.6-0.7-1.6-1.6c0-0.7,0.7-1.6,1.6-1.6
			C135.5,104,136.2,104.9,136.2,105.6"/>
		<path fill="#E46B1F" d="M129.3,111.3c0.6-1.3,5-1.1,4.8,0.2c-0.2,1.1-2.2,2.8-2.2,2.8S128.9,112.6,129.3,111.3"/>
	</g>
</g>
<path fill="#E46B1F" d="M180.3,176.8c-0.4,0-8.6,8.6-13.3,8.6c-2.9,0-4.7-3.5-4.7-6v-0.9c2.9-0.9,14.6-5.5,14.6-8.9
	c0-1.8-3.8-2-4.9-2c-6.7,0-14.2,4.2-14.2,11.5c0,4.4,3.5,10.2,8.4,10.2c3.3,0,16.2-6.9,16.2-10.4C182.5,178,181.4,176.8,180.3,176.8
	z M172.3,171.1c-4.4,3.3-9.7,4.5-9.7,4.5C162.6,172.4,169.6,168.9,172.3,171.1z"/>
<path fill="#E46B1F" d="M49.9,176.8c-0.4,0-8.6,8.6-13.3,8.6c-2.9,0-4.7-3.5-4.7-6v-0.9c2.9-0.9,14.6-5.5,14.6-8.9
	c0-1.8-3.8-2-4.9-2c-6.7,0-14.2,4.2-14.2,11.5c0,4.4,3.5,10.2,8.4,10.2c3.3,0,16.2-6.9,16.2-10.4C52.1,178,51,176.8,49.9,176.8z
	 M41.9,171.1c-4.4,3.3-9.7,4.5-9.7,4.5C32.2,172.4,39.1,168.9,41.9,171.1z"/>
<path fill="#E46B1F" d="M120.7,100.6c1.4,0,3,0.8,4.1,1.4c-0.8,3.1-1.9,6.5-2.2,7.1c-0.7,0.8-3.6,3.3-4.8,3.5
	c-0.5-1.3-0.2-6.6,1.4-11C119.3,100.9,119.8,100.6,120.7,100.6"/>
<path fill="#E46B1F" d="M143,100.6c0.9,0,1.4,0.3,1.7,1.1c1.5,4.4,1.9,9.7,1.4,11c-1.2-0.3-4.2-2.7-4.8-3.5c-0.4-0.6-1.4-4-2.2-7.1
	C140,101.4,141.7,100.6,143,100.6"/>
<path fill="#FFFFFF" d="M57.7,67.7l-11.3,0v5.2l-7.5-7.4v20.9l7.5-7.8v5.8h11.1c10.4,0,11.5-2.9,11.5-8.9
	C69,69.5,64.9,67.7,57.7,67.7z"/>
<path fill="#E46B1F" d="M64.2,73.7c0,1.1-1.1,2.1-2.1,2.1c-1.3,0-2.4-1.1-2.4-2.1c0-1.3,1.1-2.4,2.4-2.4
	C63.1,71.3,64.2,72.4,64.2,73.7"/>
<g>
	<path fill="#393A96" d="M210.9,131.7c0.7,0,1.4,0.2,2,0.5c0.6,0.4,1.2,0.9,1.5,1.5c0.4,0.7,0.6,1.3,0.6,2.1c0,0.7-0.2,1.4-0.5,2
		c-0.4,0.7-0.9,1.2-1.5,1.5c-0.7,0.4-1.3,0.5-2,0.5c-0.7,0-1.4-0.2-2-0.5c-0.6-0.4-1.2-0.9-1.5-1.5c-0.4-0.6-0.5-1.3-0.5-2
		c0-0.7,0.2-1.4,0.6-2.1c0.4-0.7,0.9-1.2,1.5-1.5C209.5,131.9,210.2,131.7,210.9,131.7z M210.9,132.5c-0.6,0-1.1,0.1-1.6,0.4
		c-0.5,0.3-0.9,0.7-1.2,1.2s-0.4,1.1-0.4,1.7c0,0.6,0.1,1.1,0.4,1.6s0.7,0.9,1.2,1.2s1.1,0.4,1.6,0.4c0.6,0,1.1-0.1,1.6-0.4
		c0.5-0.3,0.9-0.7,1.2-1.2s0.4-1.1,0.4-1.6c0-0.6-0.1-1.1-0.4-1.7s-0.7-0.9-1.2-1.2C212,132.7,211.5,132.5,210.9,132.5z M209.1,138
		v-4.4h0.9c0.8,0,1.3,0,1.4,0c0.3,0,0.5,0.1,0.7,0.2c0.2,0.1,0.3,0.2,0.4,0.4c0.1,0.2,0.2,0.4,0.2,0.6c0,0.3-0.1,0.6-0.3,0.8
		c-0.2,0.2-0.5,0.4-0.9,0.4c0.1,0.1,0.2,0.1,0.3,0.2c0.1,0.1,0.2,0.2,0.3,0.3c0,0,0.1,0.2,0.3,0.5l0.5,0.9h-1.1l-0.4-0.7
		c-0.2-0.5-0.5-0.8-0.6-0.9c-0.2-0.1-0.4-0.2-0.6-0.2H210v1.8H209.1z M210,135.6h0.4c0.5,0,0.8,0,1-0.1c0.1,0,0.2-0.1,0.3-0.2
		c0.1-0.1,0.1-0.2,0.1-0.3c0-0.1,0-0.2-0.1-0.3c-0.1-0.1-0.2-0.2-0.3-0.2c-0.1,0-0.4-0.1-1-0.1H210V135.6z"/>
</g>
</svg>
