<?xml version="1.0" encoding="iso-8859-1"?>
<!-- Generator: Adobe Illustrator 19.0.0, SVG Export Plug-In . SVG Version: 6.00 Build 0)  -->
<svg version="1.1" id="Layer_1" xmlns="http://www.w3.org/2000/svg" xmlns:xlink="http://www.w3.org/1999/xlink" x="0px" y="0px"
	 viewBox="0 0 496.158 496.158" style="enable-background:new 0 0 496.158 496.158;" xml:space="preserve">
<path style="fill:#29C183;" d="M248.075,0C111.07,0,0,111.062,0,248.083c0,137.005,111.07,248.075,248.075,248.075
	c137.013,0,248.083-111.07,248.083-248.075C496.158,111.062,385.088,0,248.075,0z"/>
<path style="fill:#E8E5DA;" d="M419.929,257.723l-43.425-96.021c-0.948-2.104-3.045-3.458-5.355-3.458H191.301
	c-2.303,0-4.398,1.354-5.355,3.458l-43.424,96.021c-0.688,1.538-0.688,3.305,0,4.843l43.424,96.021
	c0.957,2.104,3.053,3.458,5.355,3.458h179.848c2.311,0,4.407-1.354,5.355-3.458l43.425-96.021
	C420.625,261.027,420.625,259.26,419.929,257.723z"/>
<path style="fill:#CC5215;" d="M142.521,262.565l43.424,96.021c0.957,2.104,3.053,3.458,5.355,3.458h179.848
	c2.311,0,4.407-1.354,5.355-3.458l43.425-96.021H142.521z"/>
<path style="fill:#FFFAE6;" d="M260.01,258.35l-43.424-96.029c-0.949-2.104-3.045-3.45-5.355-3.45l-86.221-0.627
	c-2.304,0-4.399,1.354-5.355,3.458l-43.426,96.021c-0.688,1.538-0.688,3.305,0,4.843l43.425,96.021
	c0.956,2.104,3.052,3.458,5.355,3.458h86.221c2.311,0,4.406-0.727,5.355-2.831l43.424-96.021
	C260.706,261.647,260.706,259.888,260.01,258.35z"/>
<path style="fill:#C4C4C4;" d="M376.871,216.081l-16.785-37.664c-0.619-1.377-1.996-2.272-3.512-2.272H251.549
	c-2.227,0-2.602,1.301-1.981,2.678l16.785,37.664c0.397,0.88,1.591,2.777,5.632,2.777l103.785,0.122
	C377.445,219.386,377.484,217.672,376.871,216.081z"/>
<path style="fill:#DB5B23;" d="M76.229,262.565l43.425,96.021c0.956,2.104,3.052,3.458,5.355,3.458h87.777
	c2.303,0,4.399-1.354,5.355-3.458l42.495-96.021H76.229z"/>
<path style="fill:#C4C4C4;" d="M244.938,258.136l-36.034-79.68c-0.787-1.744-2.524-2.861-4.444-2.861h-72.053
	c-1.92,0-3.657,1.117-4.444,2.861l-36.034,79.68c-0.574,1.277-0.574,2.739,0,4.017l36.034,79.68
	c0.787,1.745,2.524,2.861,4.444,2.861h72.053c1.92,0,3.657-1.117,4.444-2.861l36.034-79.68
	C245.513,260.874,245.513,259.413,244.938,258.136z"/>
<path style="fill:#BA4511;" d="M91.929,262.152l36.034,79.68c0.787,1.745,2.524,2.861,4.444,2.861h72.053
	c1.92,0,3.657-1.117,4.444-2.861l36.034-79.68H91.929z"/>
<g>
	<rect x="134.179" y="175.589" style="fill:#E8E8E8;" width="5.875" height="169.1"/>
	<rect x="196.859" y="175.589" style="fill:#E8E8E8;" width="5.875" height="169.1"/>
	<rect x="164.869" y="175.589" style="fill:#E8E8E8;" width="5.876" height="169.1"/>
	<polygon style="fill:#E8E8E8;" points="230.349,225.866 106.517,225.866 103.863,231.741 233.004,231.741 	"/>
	<polygon style="fill:#E8E8E8;" points="103.863,288.546 106.517,294.422 230.349,294.422 233.004,288.546 	"/>
	<polygon style="fill:#E8E8E8;" points="217.06,196.488 119.807,196.488 117.152,202.364 219.715,202.364 	"/>
	<polygon style="fill:#E8E8E8;" points="117.443,318.575 120.098,324.45 216.769,324.45 219.424,318.575 	"/>
	<path style="fill:#E8E8E8;" d="M244.938,258.136l-0.711-1.583H92.64l-0.711,1.583c-0.574,1.277-0.574,2.739,0,4.017l0.122,0.275
		h152.766l0.122-0.275C245.513,260.874,245.513,259.413,244.938,258.136z"/>
</g>
<path style="fill:#C4C4C4;" d="M268.013,117.826h-18.936c-17.849,0-32.315,16.219-32.315,36.232c0,1.416,0.092,2.808,0.237,4.185
	h11.843c-0.199-1.362-0.329-2.754-0.329-4.185c0-14.383,10.397-26.042,23.228-26.042h13.61c12.829,0,23.227,11.659,23.227,26.042
	c0,1.431-0.13,2.823-0.329,4.185H300.1c0.138-1.377,0.229-2.77,0.229-4.185C300.328,134.044,285.861,117.826,268.013,117.826z"/>
<g>
	<polygon style="fill:#E8E8E8;" points="277.988,176.145 271.547,176.145 290.948,219.264 297.391,219.264 	"/>
	<polygon style="fill:#E8E8E8;" points="337.31,176.145 330.869,176.145 350.27,219.264 356.713,219.264 	"/>
	<polygon style="fill:#E8E8E8;" points="308.178,176.145 301.736,176.145 321.138,219.264 327.579,219.264 	"/>
</g>
<g>
</g>
<g>
</g>
<g>
</g>
<g>
</g>
<g>
</g>
<g>
</g>
<g>
</g>
<g>
</g>
<g>
</g>
<g>
</g>
<g>
</g>
<g>
</g>
<g>
</g>
<g>
</g>
<g>
</g>
</svg>
