<?xml version="1.0" encoding="UTF-8" standalone="no"?>
<svg
   xmlns:dc="http://purl.org/dc/elements/1.1/"
   xmlns:cc="http://creativecommons.org/ns#"
   xmlns:rdf="http://www.w3.org/1999/02/22-rdf-syntax-ns#"
   xmlns:svg="http://www.w3.org/2000/svg"
   xmlns="http://www.w3.org/2000/svg"
   viewBox="0 0 204.23274 101.37824"
   height="150"
   xml:space="preserve"
   version="1.1"
   id="svg2"><metadata
     id="metadata8"><rdf:RDF><cc:Work
         rdf:about=""><dc:format>image/svg+xml</dc:format><dc:type
           rdf:resource="http://purl.org/dc/dcmitype/StillImage" /><dc:title></dc:title></cc:Work></rdf:RDF></metadata><defs
     id="defs6"><clipPath
       id="clipPath16"
       clipPathUnits="userSpaceOnUse"><path
         id="path18"
         d="m 0,1024 1280,0 L 1280,0 0,0 0,1024 Z" /></clipPath></defs><g
     transform="matrix(0.296875,0,0,-0.296875,-61.058994,254.98469)"
     id="g10"><g
       id="g12"><g
         clip-path="url(#clipPath16)"
         id="g14"><g
           transform="translate(278.438,813.6475)"
           id="g20"><path
             id="path22"
             style="fill:#000;fill-opacity:1;fill-rule:nonzero;stroke:none"
             d="m 0,0 c 0,4.763 -0.662,8.633 -1.323,11.609 -3.308,0.596 -6.615,0.893 -10.253,0.893 l -24.807,0 0,-162.832 8.269,0 c 12.899,0 28.114,2.084 28.114,25.005 L 0,0 Z m 1.653,-125.325 c 0,-24.41 -16.206,-26.493 -29.767,-26.493 l -25.468,0 0,179.8 25.468,0 C -11.576,27.982 1.653,26.196 1.653,0 l 0,-125.325 z M 18.522,0 c 0,38.997 -23.483,41.973 -46.636,41.973 l -42.997,0 0,-208.378 42.997,0 c 10.584,0 46.636,-0.596 46.636,41.08 L 18.522,0 Z m -89.303,-167.894 -1.984,0 0,211.356 44.651,0 C -11.907,43.462 4.3,41.973 13.23,28.28 L 24.475,18.457 C 31.421,12.205 35.721,2.083 35.721,-14.884 l 0,-125.325 c 0,-42.271 -36.713,-41.676 -47.297,-41.676 l -43.659,0 -15.546,13.991 z" /></g><g
           transform="translate(370.7144,662.4238)"
           id="g24"><path
             id="path26"
             style="fill:#000;fill-opacity:1;fill-rule:nonzero;stroke:none"
             d="m 0,0 c 2.977,-0.893 6.284,-1.488 9.922,-1.488 17.2,0 25.468,12.8 25.468,27.684 l 0,125.325 c 0,4.465 -0.992,9.229 -2.646,13.396 -1.984,0.298 -3.969,0.595 -6.284,0.595 -19.184,0 -27.783,-12.8 -27.783,-28.577 l 0,-125.92 C -1.323,7.145 -0.992,3.274 0,0 m 37.044,151.521 0,-125.325 c 0,-15.777 -8.93,-29.173 -27.122,-29.173 -19.514,0 -28.444,13.694 -28.444,28.876 l 0,125.92 c 0,16.075 8.93,29.173 28.444,29.173 18.853,0 27.122,-14.884 27.122,-29.471 m 16.868,-125.325 0,125.325 c 0,23.22 -16.206,43.462 -43.99,43.462 -30.428,0 -45.974,-20.838 -45.974,-43.164 l 0,-125.92 c 0,-23.517 17.199,-43.165 45.974,-43.165 29.437,0 43.99,21.434 43.99,43.462 m -69.788,-38.699 c -13.892,7.74 -21.83,22.029 -21.83,38.402 l 0,125.92 c 0,23.219 16.207,44.653 47.628,44.653 16.538,0 29.437,-7.145 37.044,-17.862 l 10.254,-8.93 c 8.93,-8.335 13.891,-20.243 13.891,-33.043 l 0,-125.325 c 0,-22.326 -14.883,-44.057 -44.651,-44.057 -13.892,0 -24.806,4.466 -32.744,11.609 l -9.592,8.633 z" /></g><g
           transform="translate(520.1011,855.6206)"
           id="g28"><path
             id="path30"
             style="fill:#000;fill-opacity:1;fill-rule:nonzero;stroke:none"
             d="m 0,0 -81.365,0 0,-13.693 32.414,0 0,-194.685 16.868,0 0,194.685 32.083,0 L 0,0 Z m 1.653,-0.297 15.546,-13.992 0,-14.884 -32.083,0 0,-194.685 -18.191,0 -15.545,13.991 -1.985,0 0,180.694 -14.884,0 -15.545,13.991 -1.985,0 0,16.671 84.672,0 0,-1.786 z" /></g><g
           transform="translate(626.6455,855.6206)"
           id="g32"><path
             id="path34"
             style="fill:#000;fill-opacity:1;fill-rule:nonzero;stroke:none"
             d="m 0,0 -81.365,0 0,-13.693 32.413,0 0,-194.685 16.869,0 0,194.685 32.083,0 L 0,0 Z m 1.653,-0.297 15.546,-13.992 0,-14.884 -32.083,0 0,-194.685 -18.192,0 -15.545,13.991 -1.984,0 0,180.694 -14.884,0 -15.545,13.991 -1.985,0 0,16.671 84.672,0 0,-1.786 z" /></g><g
           transform="translate(741.8037,855.9185)"
           id="g36"><path
             id="path38"
             style="fill:#000;fill-opacity:1;fill-rule:nonzero;stroke:none"
             d="M 0,0 C -6.615,-24.708 -14.223,-50.606 -21.499,-76.207 L -35.06,-133.064 -48.289,-76.505 -70.119,0 l -17.529,0 43.989,-156.582 0,-52.094 17.199,0 0,52.094 L 18.191,0 0,0 Z m 20.507,1.488 -0.662,-1.786 15.876,-13.991 -44.982,-157.177 0,-52.69 -18.522,0 -15.545,13.991 -1.985,0 0,53.286 c -6.946,25.601 -15.214,52.987 -22.16,78.588 -7.607,26.494 -15.545,53.881 -22.491,79.779 l 21.168,0 0.331,-2.083 15.545,-13.694 21.829,-77.1 1.986,-8.93 5.953,24.41 21.499,77.397 22.16,0 z" /></g><g
           transform="translate(876.415,688.3228)"
           id="g40"><path
             id="path42"
             style="fill:#000;fill-opacity:1;fill-rule:nonzero;stroke:none"
             d="M 0,0 0,15.182 C 0,36.317 -20.506,44.652 -43.989,56.56 -57.55,63.406 -71.11,71.146 -72.103,84.84 l 0,41.08 c 0,19.35 9.922,28.578 24.806,28.578 17.53,0 24.145,-12.801 24.145,-28.28 l 0,-26.792 16.868,0 0,27.089 c 0,24.113 -14.884,42.272 -41.013,42.272 -29.105,0 -42.336,-19.052 -42.336,-42.867 l 0,-41.676 c 1.985,-23.814 24.476,-33.638 43.328,-43.164 15.876,-8.038 29.437,-13.395 29.437,-27.089 l 0,-13.991 c 0,-16.373 -9.261,-29.471 -27.452,-29.471 -19.845,0 -29.437,14.587 -28.776,30.066 l 0,20.242 -17.198,0 0,-20.242 C -90.625,-25.899 -71.441,-43.462 -44.32,-43.462 -14.222,-43.462 0,-23.219 0,0 m -53.581,63.109 c 3.308,-1.786 6.615,-3.572 10.253,-5.061 l 5.954,-2.977 -0.331,0 C -23.152,47.927 -9.922,40.782 -2.977,30.364 L 6.285,22.326 C 12.899,16.373 17.199,9.526 17.199,0.297 l 0,-15.181 c 0,-23.518 -14.553,-44.058 -44.981,-44.058 -13.231,0 -24.807,4.168 -33.075,11.61 l -9.923,8.93 c -13.23,7.443 -21.498,21.434 -21.168,38.997 l 0,21.731 20.507,0 0,-1.786 15.545,-13.991 0,-20.838 c -0.331,-4.168 0,-8.336 1.323,-12.205 2.976,-0.893 6.284,-1.489 10.253,-1.489 17.199,0 25.799,12.503 25.799,27.983 l 0,13.991 c 0,2.382 -0.332,4.168 -1.324,6.251 l -5.953,3.275 -4.3,2.084 -3.307,1.786 c -9.261,4.762 -19.515,9.526 -27.121,16.67 l -7.939,7.144 c -11.907,7.443 -21.499,17.564 -22.821,33.043 l 0,41.676 c 0,24.708 13.891,44.355 43.989,44.355 15.876,0 27.783,-6.549 35.06,-16.968 l 9.923,-8.931 c 8.599,-7.739 13.229,-19.349 13.229,-32.745 l 0,-27.684 -18.191,0 -15.545,13.991 -1.985,0 0,28.28 c 0,4.465 -0.661,8.633 -1.984,12.205 -1.323,0.297 -2.647,0.595 -3.97,0.595 -14.553,0 -24.144,-8.931 -24.144,-27.982 l 0,-41.08 c 0,-2.382 0.331,-4.764 1.323,-6.847" /></g><g
           transform="translate(260.1064,586.8447)"
           id="g44"><path
             id="path46"
             style="fill:#fff;fill-opacity:1;fill-rule:nonzero;stroke:none"
             d="m 0,0 c -3.661,0 -10.281,-6.197 -14.788,-13.802 -4.577,-7.676 -5.281,-13.802 -1.619,-13.802 3.592,0 10.211,6.126 14.788,13.802 C 2.888,-6.197 3.662,0 0,0 m 7.042,-22.464 c -7.394,-11.408 -18.309,-16.337 -24.576,-16.337 -5.281,0 -7.817,3.239 -8.38,7.042 l -17.323,-32.393 -11.197,0 37.323,69.433 11.126,0 -2.536,-4.718 c 4.085,4.084 9.014,7.394 13.803,7.394 9.577,0 14.506,-10.774 1.76,-30.421" /></g><g
           transform="translate(287.6406,570.3662)"
           id="g48"><path
             id="path50"
             style="fill:#fff;fill-opacity:1;fill-rule:nonzero;stroke:none"
             d="m 0,0 c -0.142,-0.352 -0.353,-0.634 -0.563,-0.986 3.45,-2.676 7.393,0 10.703,2.747 4.506,3.802 8.309,12.041 4.718,12.041 C 11.196,13.802 4.577,7.676 0,0 M 46.194,13.591 C 35.843,-3.239 18.098,-24.928 0.704,-24.928 c -17.253,0 -20.774,13.309 -11.127,28.731 7.888,12.534 17.535,18.027 23.732,18.027 10.211,0 16.548,-9.718 6.478,-22.323 C 13.731,-8.027 6.76,-11.337 0.634,-9.436 c -1.55,0.422 -2.747,1.197 -3.733,2.113 -1.197,-5.634 1.268,-9.225 7.324,-9.225 12.112,0 27.253,16.407 40.773,35.35 1.126,1.55 1.76,-4.295 1.196,-5.211" /></g><g
           transform="translate(361.3682,583.6758)"
           id="g52"><path
             id="path54"
             style="fill:#fff;fill-opacity:1;fill-rule:nonzero;stroke:none"
             d="m 0,0 c -1.972,-2.042 -28.66,-25.421 -34.294,-30.773 -6.127,-5.775 -9.93,-7.465 -12.887,-7.465 -4.647,0 -6.76,3.381 -2.746,10.704 1.408,2.605 8.944,16.76 16.337,30.492 l -8.169,0 c 1.197,2.253 1.902,3.521 1.902,3.521 l 8.098,0 c 6.972,13.027 9.155,16.83 9.155,16.83 l 11.196,0 c 0,0 -2.676,-4.578 -9.154,-16.83 l 8.379,0.07 c 0,0 -0.704,-1.338 -1.901,-3.591 l -8.38,0 c -4.647,-8.732 -8.872,-16.62 -10.069,-18.873 -1.057,-1.901 -2.958,-5.774 -2.395,-6.337 0.564,-0.634 2.253,0.915 4.084,2.464 2.676,2.253 27.464,22.534 30.07,25.281 C 0.563,6.901 0.704,0.774 0,0" /></g><g
           transform="translate(374.0848,551.8462)"
           id="g56"><path
             id="path58"
             style="fill:#fff;fill-opacity:1;fill-rule:nonzero;stroke:none"
             d="M 0,0 C 0.845,1.126 1.761,2.112 2.676,3.521 -1.408,2.253 -4.507,1.126 -4.789,-0.352 -5.281,-2.958 -1.761,-2.395 0,0 M 45.35,32.534 C 39.012,23.027 25.14,12.675 15.985,8.239 11.196,-4.084 4.014,-6.408 -3.169,-6.408 c -4.366,0 -10.562,1.408 -9.436,7.534 0.845,4.86 9.155,6.479 18.168,8.874 0.705,2.112 1.268,4.647 1.901,7.957 1.973,11.056 2.677,24.788 15,25.632 12.323,0.846 -0.634,-10.21 -0.634,-10.21 0,0 -1.761,-8.803 -2.817,-14.084 -0.282,-1.761 -0.704,-3.451 -1.126,-5 7.393,3.31 16.548,9.647 26.829,23.027 1.69,1.408 1.197,-3.873 0.634,-4.788" /></g><g
           transform="translate(421.2645,608.9561)"
           id="g60"><path
             id="path62"
             style="fill:#fff;fill-opacity:1;fill-rule:nonzero;stroke:none"
             d="M 0,0 C 1.972,4.296 6.972,7.817 11.267,7.817 15.633,7.817 17.534,4.296 15.633,0 13.731,-4.295 8.661,-7.746 4.366,-7.746 0.07,-7.746 -1.901,-4.295 0,0 m 22.111,-25.28 c -1.971,-2.043 -25.21,-25.422 -30.843,-30.774 -6.126,-5.774 -9.929,-7.464 -12.887,-7.464 -4.648,0 -6.76,3.38 -2.746,10.704 2.887,5.281 19.295,35.984 19.295,35.984 l 11.196,0.07 c 0,0 -10.069,-18.731 -13.098,-24.435 -1.055,-1.902 -2.957,-5.775 -2.394,-6.338 0.563,-0.634 2.254,0.916 4.085,2.465 2.676,2.253 24.012,22.534 26.618,25.28 1.338,1.409 1.478,-4.718 0.774,-5.492" /></g><g
           transform="translate(471.4022,583.6758)"
           id="g64"><path
             id="path66"
             style="fill:#fff;fill-opacity:1;fill-rule:nonzero;stroke:none"
             d="m 0,0 c -1.972,-2.042 -28.66,-25.421 -34.294,-30.773 -6.127,-5.775 -9.93,-7.465 -12.887,-7.465 -4.647,0 -6.76,3.381 -2.746,10.704 1.408,2.605 8.944,16.76 16.337,30.492 l -8.169,0 c 1.197,2.253 1.902,3.521 1.902,3.521 l 8.098,0 c 6.972,13.027 9.155,16.83 9.155,16.83 l 11.196,0 c 0,0 -2.676,-4.578 -9.154,-16.83 l 8.379,0.07 c 0,0 -0.704,-1.338 -1.901,-3.591 l -8.38,0 c -4.647,-8.732 -8.872,-16.62 -10.069,-18.873 -1.057,-1.901 -2.958,-5.774 -2.395,-6.337 0.564,-0.634 2.253,0.915 4.084,2.464 2.676,2.253 27.464,22.534 30.07,25.281 C 0.563,6.901 0.704,0.774 0,0" /></g><g
           transform="translate(499.7098,583.6758)"
           id="g68"><path
             id="path70"
             style="fill:#fff;fill-opacity:1;fill-rule:nonzero;stroke:none"
             d="m 0,0 c -1.972,-2.042 -28.66,-25.421 -34.294,-30.773 -6.127,-5.775 -9.93,-7.465 -12.887,-7.465 -4.647,0 -6.76,3.381 -2.746,10.704 1.408,2.605 8.944,16.76 16.337,30.492 l -8.169,0 c 1.197,2.253 1.902,3.521 1.902,3.521 l 8.098,0 c 6.972,13.027 9.155,16.83 9.155,16.83 l 11.196,0 c 0,0 -2.676,-4.578 -9.154,-16.83 l 8.379,0.07 c 0,0 -0.704,-1.338 -1.901,-3.591 l -8.38,0 c -4.647,-8.732 -8.872,-16.62 -10.069,-18.873 -1.057,-1.901 -2.958,-5.774 -2.395,-6.337 0.564,-0.634 2.253,0.915 4.084,2.464 2.676,2.253 27.464,22.534 30.07,25.281 C 0.563,6.901 0.704,0.774 0,0" /></g><g
           transform="translate(502.4549,608.9561)"
           id="g72"><path
             id="path74"
             style="fill:#fff;fill-opacity:1;fill-rule:nonzero;stroke:none"
             d="M 0,0 C 1.973,4.296 6.972,7.817 11.268,7.817 15.634,7.817 17.535,4.296 15.634,0 13.732,-4.295 8.662,-7.746 4.366,-7.746 0.071,-7.746 -1.9,-4.295 0,0 m 22.112,-25.28 c -1.971,-2.043 -25.21,-25.422 -30.843,-30.774 -6.127,-5.774 -9.93,-7.464 -12.887,-7.464 -4.648,0 -6.761,3.38 -2.746,10.704 2.886,5.281 19.295,35.984 19.295,35.984 l 11.196,0.07 c 0,0 -10.07,-18.731 -13.098,-24.435 -1.056,-1.902 -2.958,-5.775 -2.394,-6.338 0.563,-0.634 2.253,0.916 4.084,2.465 2.676,2.253 24.013,22.534 26.619,25.28 1.338,1.409 1.478,-4.718 0.774,-5.492" /></g><g
           transform="translate(574.9168,583.6758)"
           id="g76"><path
             id="path78"
             style="fill:#fff;fill-opacity:1;fill-rule:nonzero;stroke:none"
             d="m 0,0 c -1.972,-2.042 -25.14,-25.421 -30.773,-30.773 -6.126,-5.775 -9.999,-7.465 -12.887,-7.465 -4.648,0 -6.76,3.381 -2.746,10.704 2.886,5.282 4.928,9.366 8.168,15.281 2.887,5.422 3.802,8.521 1.409,8.521 -4.085,0 -22.887,-17.605 -32.041,-34.506 l 0.141,0.212 -0.141,-0.212 -11.126,0 25.069,46.688 11.126,0 -11.478,-21.407 c 14.154,18.45 24.365,21.478 27.675,21.478 5.493,0 9.788,-3.099 4.436,-13.31 -1.69,-3.309 -2.817,-5.422 -5.915,-11.126 -0.986,-1.901 -2.888,-5.774 -2.324,-6.337 0.563,-0.634 2.254,0.915 4.013,2.464 2.748,2.253 24.084,22.534 26.69,25.281 C 0.634,6.901 0.774,0.774 0,0" /></g><g
           transform="translate(580.5486,570.3662)"
           id="g80"><path
             id="path82"
             style="fill:#fff;fill-opacity:1;fill-rule:nonzero;stroke:none"
             d="M 0,0 C 4.577,7.605 5.281,13.802 1.619,13.802 -1.972,13.802 -8.592,7.605 -13.169,0 -17.676,-7.605 -18.45,-13.802 -14.788,-13.802 -11.126,-13.802 -4.507,-7.605 0,0 m -15.845,-31.618 c -8.38,-5.986 -13.661,-10.352 -13.661,-13.591 0,-2.324 1.268,-3.028 2.746,-3.028 2.888,0 4.86,5.141 8.521,11.971 l 2.394,4.648 z M 39.294,13.31 C 26.618,-0.141 13.098,-10.844 1.338,-19.365 -3.31,-28.097 -7.183,-35.35 -8.38,-37.393 c -5.845,-9.929 -9.507,-15.562 -18.45,-15.562 -4.366,0 -10.845,3.099 -10.845,9.295 0,8.028 11.619,11.197 25.844,19.647 l 3.803,7.253 c -4.295,-4.436 -9.506,-8.168 -14.647,-8.168 -9.577,0 -12.465,11.267 -2.465,26.477 9.999,15.211 19.013,20.281 25.281,20.281 4.084,0 7.042,-3.803 7.816,-8.028 l 4.155,8.028 11.126,0 c 0,0 -9.013,-17.182 -17.534,-33.097 11.126,9.366 24.364,21.9 32.816,30.069 1.408,1.338 1.478,-4.718 0.774,-5.492" /></g><g
           transform="translate(632.5789,551.8462)"
           id="g84"><path
             id="path86"
             style="fill:#fff;fill-opacity:1;fill-rule:nonzero;stroke:none"
             d="M 0,0 C 0.845,1.126 1.761,2.112 2.676,3.521 -1.408,2.253 -4.507,1.126 -4.789,-0.352 -5.281,-2.958 -1.761,-2.395 0,0 M 45.35,32.534 C 39.012,23.027 25.14,12.675 15.984,8.239 11.196,-4.084 4.014,-6.408 -3.169,-6.408 c -4.366,0 -10.562,1.408 -9.436,7.534 0.845,4.86 9.155,6.479 18.168,8.874 0.705,2.112 1.268,4.647 1.901,7.957 1.973,11.056 2.677,24.788 15,25.632 12.323,0.846 -0.634,-10.21 -0.634,-10.21 0,0 -1.761,-8.803 -2.817,-14.084 -0.282,-1.761 -0.704,-3.451 -1.127,-5 7.394,3.31 16.549,9.647 26.83,23.027 1.69,1.408 1.197,-3.873 0.634,-4.788" /></g><g
           transform="translate(670.533,570.3662)"
           id="g88"><path
             id="path90"
             style="fill:#fff;fill-opacity:1;fill-rule:nonzero;stroke:none"
             d="m 0,0 c -0.141,-0.352 -0.353,-0.634 -0.563,-0.986 3.45,-2.676 7.394,0 10.704,2.747 4.506,3.802 8.309,12.041 4.717,12.041 C 11.196,13.802 4.577,7.676 0,0 M 46.195,13.591 C 35.844,-3.239 18.098,-24.928 0.704,-24.928 c -17.253,0 -20.773,13.309 -11.126,28.731 7.887,12.534 17.534,18.027 23.732,18.027 10.21,0 16.547,-9.718 6.478,-22.323 C 13.731,-8.027 6.76,-11.337 0.634,-9.436 c -1.55,0.422 -2.746,1.197 -3.733,2.113 -1.197,-5.634 1.268,-9.225 7.324,-9.225 12.112,0 27.253,16.407 40.773,35.35 1.127,1.55 1.761,-4.295 1.197,-5.211" /></g><g
           transform="translate(749.4725,583.6758)"
           id="g92"><path
             id="path94"
             style="fill:#fff;fill-opacity:1;fill-rule:nonzero;stroke:none"
             d="m 0,0 c -1.972,-2.042 -25.14,-25.421 -30.844,-30.773 -6.055,-5.775 -9.999,-7.465 -12.886,-7.465 -4.648,0 -6.69,3.381 -2.747,10.704 2.887,5.282 6.76,12.957 10.211,18.731 3.591,5.986 -0.704,6.479 -2.394,7.324 -3.803,1.972 -9.295,8.169 -4.154,14.647 4.084,5.07 10.21,4.084 13.661,1.831 3.732,-2.394 0.351,-7.112 -3.873,-11.689 0.422,-0.493 0.915,-0.916 1.548,-1.268 5.423,-3.099 12.394,0.493 7.676,-8.521 -1.76,-3.38 -2.253,-3.732 -5.281,-9.436 -1.057,-1.901 -2.888,-5.774 -2.324,-6.337 0.563,-0.634 2.254,0.915 4.013,2.464 2.748,2.253 24.014,22.534 26.62,25.281 C 0.634,6.901 0.704,0.774 0,0" /></g><g
           transform="translate(787.8494,583.8164)"
           id="g96"><path
             id="path98"
             style="fill:#fff;fill-opacity:1;fill-rule:nonzero;stroke:none"
             d="m 0,0 c -0.704,-0.774 -15.141,-21.548 -26.548,-16.337 -11.619,-17.183 -17.957,-22.041 -23.872,-22.041 -8.028,0 -10.423,6.971 -7.254,15.069 3.662,9.436 12.746,31.619 12.746,31.619 l 11.126,0.07 c 0,0 -6.549,-16.901 -10.422,-26.689 -1.338,-3.38 -1.127,-6.479 2.042,-6.479 4.015,0 7.888,5.423 11.902,12.676 -2.254,7.465 5.351,20.633 11.126,20.633 2.042,0 5.563,-2.958 2.465,-8.662 C -17.957,-2.394 -21.9,-9.084 -21.9,-9.084 -16.056,-13.098 -5.141,0.986 -3.38,3.31 -1.549,5.634 0.704,0.775 0,0" /></g><g
           transform="translate(790.7352,608.9561)"
           id="g100"><path
             id="path102"
             style="fill:#fff;fill-opacity:1;fill-rule:nonzero;stroke:none"
             d="M 0,0 C 1.972,4.296 6.972,7.817 11.268,7.817 15.634,7.817 17.534,4.296 15.634,0 13.732,-4.295 8.662,-7.746 4.366,-7.746 0.07,-7.746 -1.901,-4.295 0,0 m 22.112,-25.28 c -1.971,-2.043 -25.211,-25.422 -30.843,-30.774 -6.127,-5.774 -9.93,-7.464 -12.887,-7.464 -4.649,0 -6.761,3.38 -2.747,10.704 2.887,5.281 19.295,35.984 19.295,35.984 l 11.197,0.07 c 0,0 -10.07,-18.731 -13.099,-24.435 -1.055,-1.902 -2.957,-5.775 -2.393,-6.338 0.563,-0.634 2.253,0.916 4.084,2.465 2.676,2.253 24.012,22.534 26.618,25.28 1.338,1.409 1.479,-4.718 0.775,-5.492" /></g><g
           transform="translate(853.4774,583.9575)"
           id="g104"><path
             id="path106"
             style="fill:#fff;fill-opacity:1;fill-rule:nonzero;stroke:none"
             d="m 0,0 c -10.352,-16.831 -28.098,-38.52 -45.42,-38.52 -15.915,0 -20.845,13.31 -11.197,28.731 7.887,12.535 17.534,18.028 23.802,18.028 10.14,0 16.126,-9.366 6.408,-22.323 -3.591,-4.718 -9.648,2.253 -9.648,2.253 4.507,3.803 8.38,12.042 4.718,12.042 -3.661,0 -10.281,-6.127 -14.788,-13.802 -5.774,-9.718 -4.154,-16.549 4.155,-16.549 12.113,0 27.252,16.408 40.773,35.351 C -0.07,6.76 0.563,0.916 0,0" /></g><g
           transform="translate(847.2098,570.3662)"
           id="g108"><path
             id="path110"
             style="fill:#fff;fill-opacity:1;fill-rule:nonzero;stroke:none"
             d="m 0,0 c -0.141,-0.352 -0.353,-0.634 -0.563,-0.986 3.45,-2.676 7.394,0 10.704,2.747 4.506,3.802 8.309,12.041 4.717,12.041 C 11.196,13.802 4.577,7.676 0,0 M 46.195,13.591 C 35.844,-3.239 18.098,-24.928 0.704,-24.928 c -17.253,0 -20.773,13.309 -11.126,28.731 7.887,12.534 17.534,18.027 23.732,18.027 10.21,0 16.547,-9.718 6.478,-22.323 C 13.731,-8.027 6.76,-11.337 0.634,-9.436 c -1.55,0.422 -2.746,1.197 -3.733,2.113 -1.197,-5.634 1.268,-9.225 7.324,-9.225 12.112,0 27.253,16.407 40.773,35.35 1.127,1.55 1.761,-4.295 1.197,-5.211" /></g></g></g></g></svg>