<?xml version="1.0" encoding="UTF-8" standalone="no"?>
<svg
   xmlns:dc="http://purl.org/dc/elements/1.1/"
   xmlns:cc="http://creativecommons.org/ns#"
   xmlns:rdf="http://www.w3.org/1999/02/22-rdf-syntax-ns#"
   xmlns:svg="http://www.w3.org/2000/svg"
   xmlns="http://www.w3.org/2000/svg"
   viewBox="0 0 883.64966 883.64966"
   height="300"
   xml:space="preserve"
   version="1.1"
   id="svg2"><metadata
     id="metadata8"><rdf:RDF><cc:Work
         rdf:about=""><dc:format>image/svg+xml</dc:format><dc:type
           rdf:resource="http://purl.org/dc/dcmitype/StillImage" /><dc:title></dc:title></cc:Work></rdf:RDF></metadata><defs
     id="defs6"><clipPath
       clipPathUnits="userSpaceOnUse"
       id="clipPath16"><path
         d="M0.0 1024.0C0.0 1024.0 1280.0 1024.0 1280.0 1024.0C1280.0 1024.0 1280.0 0.0 1280.0 0.0C1280.0 0.0 0.0 0.0 0.0 0.0C0.0 0.0 0.0 1024.0 0.0 1024.0C0.0 1024.0 0.0 1024.0 0.0 1024.0"
         id="path18" /></clipPath></defs><g
     id="g10"><g
       id="g12"><g
         id="g14"
         clip-path="url(#clipPath16)"><g
           id="g20"><path
             d="M883.649686905 441.824800794C883.649686905 685.837637567 685.837680897 883.649643575 441.824844123 883.649643575C197.810989217 883.649643575 1.34218748826e-06 685.837637567 1.34218748826e-06 441.824800794C1.34218748826e-06 197.81196402 197.810989217 -4.19875000262e-05 441.824844123 -4.19875000262e-05C685.837680897 -4.19875000262e-05 883.649686905 197.81196402 883.649686905 441.824800794"
             style="fill:#000000;fill-opacity:1;fill-rule:nonzero;stroke:none"
             id="path22" /></g><g
           id="g24"><path
             d="M165.701320203 314.055139809C165.701320203 309.205773223 165.027316281 305.265599238 164.354330492 302.235635988C160.986347148 301.628828832 157.619381937 301.326443387 153.915414766 301.326443387C153.915414766 301.326443387 128.658594086 301.326443387 128.658594086 301.326443387C128.658594086 301.326443387 128.658594086 467.111045512 128.658594086 467.111045512C128.658594086 467.111045512 137.077534313 467.111045512 137.077534313 467.111045512C150.210429461 467.111045512 165.701320203 464.98925673 165.701320203 441.652634535C165.701320203 441.652634535 165.701320203 314.055139809 165.701320203 314.055139809C165.701320203 314.055139809 165.701320203 314.055139809 165.701320203 314.055139809M167.384293742 441.652634535C167.384293742 466.505256488 150.884433383 468.626027137 137.077534313 468.626027137C137.077534313 468.626027137 111.147727844 468.626027137 111.147727844 468.626027137C111.147727844 468.626027137 111.147727844 285.565747449 111.147727844 285.565747449C111.147727844 285.565747449 137.077534313 285.565747449 137.077534313 285.565747449C153.915414766 285.565747449 167.384293742 287.384132652 167.384293742 314.055139809C167.384293742 314.055139809 167.384293742 441.652634535 167.384293742 441.652634535C167.384293742 441.652634535 167.384293742 441.652634535 167.384293742 441.652634535M184.559176156 314.055139809C184.559176156 274.35101452 160.65036332 271.32105127 137.077534312 271.32105127C137.077534312 271.32105127 93.3008777734 271.32105127 93.3008777734 271.32105127C93.3008777734 271.32105127 93.3008777734 483.477530473 93.3008777734 483.477530473C93.3008777734 483.477530473 137.077534312 483.477530473 137.077534312 483.477530473C147.853452 483.477530473 184.559176156 484.084337629 184.559176156 441.652634535C184.559176156 441.652634535 184.559176156 314.055139809 184.559176156 314.055139809C184.559176156 314.055139809 184.559176156 314.055139809 184.559176156 314.055139809M93.6368616016 484.99353023C93.6368616016 484.99353023 91.6168861016 484.99353023 91.6168861016 484.99353023C91.6168861016 484.99353023 91.6168861016 269.805051512 91.6168861016 269.805051512C91.6168861016 269.805051512 137.077534313 269.805051512 137.077534313 269.805051512C153.578412805 269.805051512 170.079291297 271.32105127 179.171217313 285.262343871C179.171217313 285.262343871 190.620120789 295.263462488 190.620120789 295.263462488C197.692071305 301.628828832 202.070042398 311.93436916 202.070042398 329.20902859C202.070042398 329.20902859 202.070042398 456.806523316 202.070042398 456.806523316C202.070042398 499.844015434 164.691332453 499.23822641 153.915414766 499.23822641C153.915414766 499.23822641 109.464754305 499.23822641 109.464754305 499.23822641C109.464754305 499.23822641 93.6368616016 484.99353023 93.6368616016 484.99353023C93.6368616016 484.99353023 93.6368616016 484.99353023 93.6368616016 484.99353023"
             style="fill:#ffffff;fill-opacity:1;fill-rule:nonzero;stroke:none"
             id="path26" /></g><g
           id="g28"><path
             d="M259.650950863 468.020848993C262.681932245 468.930041595 266.048897456 469.535830618 269.752864628 469.535830618C287.264749003 469.535830618 295.682671097 456.503730618 295.682671097 441.349841837C295.682671097 441.349841837 295.682671097 313.75234711 295.682671097 313.75234711C295.682671097 309.206384102 294.672683347 304.357017516 292.988691675 300.113439954C290.968716175 299.810036376 288.947722542 299.50765093 286.590745081 299.50765093C267.058885206 299.50765093 258.303961152 312.53975093 258.303961152 328.602832313C258.303961152 328.602832313 258.303961152 456.806116063 258.303961152 456.806116063C258.303961152 460.746290048 258.640963113 464.687482165 259.650950863 468.020848993M297.366662769 313.75234711C297.366662769 313.75234711 297.366662769 441.349841837 297.366662769 441.349841837C297.366662769 457.41292322 288.274736753 471.051830376 269.752864628 471.051830376C249.885020925 471.051830376 240.793094909 457.109519641 240.793094909 441.652227282C240.793094909 441.652227282 240.793094909 313.448943532 240.793094909 313.448943532C240.793094909 297.082458571 249.885020925 283.746954993 269.752864628 283.746954993C288.947722542 283.746954993 297.366662769 298.900843774 297.366662769 313.75234711M314.54052705 441.349841837C314.54052705 441.349841837 314.54052705 313.75234711 314.54052705 313.75234711C314.54052705 290.111303204 298.040666691 269.502258813 269.752864628 269.502258813C238.773119409 269.502258813 222.945226706 290.71811036 222.945226706 313.448943532C222.945226706 313.448943532 222.945226706 441.652227282 222.945226706 441.652227282C222.945226706 465.595656634 240.456092948 485.599930134 269.752864628 485.599930134C299.72364023 485.599930134 314.54052705 463.77727143 314.54052705 441.349841837M243.487074331 480.750563548C229.3431733 472.870215579 221.261235034 458.322115821 221.261235034 441.652227282C221.261235034 441.652227282 221.261235034 313.448943532 221.261235034 313.448943532C221.261235034 289.808917759 237.762113527 267.986259055 269.752864628 267.986259055C286.590745081 267.986259055 299.72364023 275.260818001 307.468576534 286.172147352C307.468576534 286.172147352 317.908510394 295.264073368 317.908510394 295.264073368C327.000436409 303.75021036 332.051393292 315.874135891 332.051393292 328.906235891C332.051393292 328.906235891 332.051393292 456.503730618 332.051393292 456.503730618C332.051393292 479.23456379 316.898522644 501.359607938 286.590745081 501.359607938C272.44684405 501.359607938 261.334942534 496.812626798 253.253004269 489.540104118C253.253004269 489.540104118 243.487074331 480.750563548 243.487074331 480.750563548C243.487074331 480.750563548 243.487074331 480.750563548 243.487074331 480.750563548"
             style="fill:#ffffff;fill-opacity:1;fill-rule:nonzero;stroke:none"
             id="path30" /></g><g
           id="g32"><path
             d="M411.746553697 271.320847643C411.746553697 271.320847643 328.906177408 271.320847643 328.906177408 271.320847643C328.906177408 271.320847643 328.906177408 285.262140245 328.906177408 285.262140245C328.906177408 285.262140245 361.907934392 285.262140245 361.907934392 285.262140245C361.907934392 285.262140245 361.907934392 483.477326846 361.907934392 483.477326846C361.907934392 483.477326846 379.081798673 483.477326846 379.081798673 483.477326846C379.081798673 483.477326846 379.081798673 285.262140245 379.081798673 285.262140245C379.081798673 285.262140245 411.746553697 285.262140245 411.746553697 285.262140245C411.746553697 285.262140245 411.746553697 271.320847643 411.746553697 271.320847643C411.746553697 271.320847643 411.746553697 271.320847643 411.746553697 271.320847643M413.429527236 271.623233088C413.429527236 271.623233088 429.257419939 285.868947401 429.257419939 285.868947401C429.257419939 285.868947401 429.257419939 301.022836182 429.257419939 301.022836182C429.257419939 301.022836182 396.592664916 301.022836182 396.592664916 301.022836182C396.592664916 301.022836182 396.592664916 499.238022784 396.592664916 499.238022784C396.592664916 499.238022784 378.071810923 499.238022784 378.071810923 499.238022784C378.071810923 499.238022784 362.244936353 484.993326604 362.244936353 484.993326604C362.244936353 484.993326604 360.22394272 484.993326604 360.22394272 484.993326604C360.22394272 484.993326604 360.22394272 301.022836182 360.22394272 301.022836182C360.22394272 301.022836182 345.070053939 301.022836182 345.070053939 301.022836182C345.070053939 301.022836182 329.243179369 286.778140002 329.243179369 286.778140002C329.243179369 286.778140002 327.222185736 286.778140002 327.222185736 286.778140002C327.222185736 286.778140002 327.222185736 269.804847885 327.222185736 269.804847885C327.222185736 269.804847885 413.429527236 269.804847885 413.429527236 269.804847885C413.429527236 269.804847885 413.429527236 271.623233088 413.429527236 271.623233088C413.429527236 271.623233088 413.429527236 271.623233088 413.429527236 271.623233088"
             style="fill:#ffffff;fill-opacity:1;fill-rule:nonzero;stroke:none"
             id="path34" /></g><g
           id="g36"><path
             d="M520.222903325 271.320847643C520.222903325 271.320847643 437.382527036 271.320847643 437.382527036 271.320847643C437.382527036 271.320847643 437.382527036 285.262140245 437.382527036 285.262140245C437.382527036 285.262140245 470.383265887 285.262140245 470.383265887 285.262140245C470.383265887 285.262140245 470.383265887 483.477326846 470.383265887 483.477326846C470.383265887 483.477326846 487.558148302 483.477326846 487.558148302 483.477326846C487.558148302 483.477326846 487.558148302 285.262140245 487.558148302 285.262140245C487.558148302 285.262140245 520.222903325 285.262140245 520.222903325 285.262140245C520.222903325 285.262140245 520.222903325 271.320847643 520.222903325 271.320847643C520.222903325 271.320847643 520.222903325 271.320847643 520.222903325 271.320847643M521.905876864 271.623233088C521.905876864 271.623233088 537.733769567 285.868947401 537.733769567 285.868947401C537.733769567 285.868947401 537.733769567 301.022836182 537.733769567 301.022836182C537.733769567 301.022836182 505.069014544 301.022836182 505.069014544 301.022836182C505.069014544 301.022836182 505.069014544 499.238022784 505.069014544 499.238022784C505.069014544 499.238022784 486.547142419 499.238022784 486.547142419 499.238022784C486.547142419 499.238022784 470.720267848 484.993326604 470.720267848 484.993326604C470.720267848 484.993326604 468.700292348 484.993326604 468.700292348 484.993326604C468.700292348 484.993326604 468.700292348 301.022836182 468.700292348 301.022836182C468.700292348 301.022836182 453.546403567 301.022836182 453.546403567 301.022836182C453.546403567 301.022836182 437.719528997 286.778140002 437.719528997 286.778140002C437.719528997 286.778140002 435.698535364 286.778140002 435.698535364 286.778140002C435.698535364 286.778140002 435.698535364 269.804847885 435.698535364 269.804847885C435.698535364 269.804847885 521.905876864 269.804847885 521.905876864 269.804847885C521.905876864 269.804847885 521.905876864 271.623233088 521.905876864 271.623233088C521.905876864 271.623233088 521.905876864 271.623233088 521.905876864 271.623233088"
             style="fill:#ffffff;fill-opacity:1;fill-rule:nonzero;stroke:none"
             id="path38" /></g><g
           id="g40"><path
             d="M637.469245373 271.017647691C630.734296819 296.173673223 622.988342381 322.541276801 615.580408037 348.606494934C615.580408037 348.606494934 601.773508967 406.494472254 601.773508967 406.494472254C601.773508967 406.494472254 588.304629991 348.909898512 588.304629991 348.909898512C588.304629991 348.909898512 566.078790694 271.017647691 566.078790694 271.017647691C566.078790694 271.017647691 548.231940623 271.017647691 548.231940623 271.017647691C548.231940623 271.017647691 593.018584913 430.438919738 593.018584913 430.438919738C593.018584913 430.438919738 593.018584913 483.477530473 593.018584913 483.477530473C593.018584913 483.477530473 610.529451155 483.477530473 610.529451155 483.477530473C610.529451155 483.477530473 610.529451155 430.438919738 610.529451155 430.438919738C610.529451155 430.438919738 655.990099366 271.017647691 655.990099366 271.017647691C655.990099366 271.017647691 637.469245373 271.017647691 637.469245373 271.017647691C637.469245373 271.017647691 637.469245373 271.017647691 637.469245373 271.017647691M658.348094959 269.502666066C658.348094959 269.502666066 657.674091038 271.32105127 657.674091038 271.32105127C657.674091038 271.32105127 673.837967569 285.565747449 673.837967569 285.565747449C673.837967569 285.565747449 628.040317397 445.59280852 628.040317397 445.59280852C628.040317397 445.59280852 628.040317397 499.23822641 628.040317397 499.23822641C628.040317397 499.23822641 609.182461444 499.23822641 609.182461444 499.23822641C609.182461444 499.23822641 593.355586873 484.99353023 593.355586873 484.99353023C593.355586873 484.99353023 591.334593241 484.99353023 591.334593241 484.99353023C591.334593241 484.99353023 591.334593241 430.741305184 591.334593241 430.741305184C584.262642725 404.676087051 575.844720631 376.793501848 568.772770116 350.728283715C561.027833811 323.75387298 552.945895545 295.870269645 545.87394503 269.502666066C545.87394503 269.502666066 567.425780405 269.502666066 567.425780405 269.502666066C567.425780405 269.502666066 567.762782366 271.623436715 567.762782366 271.623436715C567.762782366 271.623436715 583.589656936 285.565747449 583.589656936 285.565747449C583.589656936 285.565747449 605.8144781 364.063787293 605.8144781 364.063787293C605.8144781 364.063787293 607.836489866 373.155713309 607.836489866 373.155713309C607.836489866 373.155713309 613.897434498 348.303091355 613.897434498 348.303091355C613.897434498 348.303091355 635.786271834 269.502666066 635.786271834 269.502666066C635.786271834 269.502666066 658.348094959 269.502666066 658.348094959 269.502666066C658.348094959 269.502666066 658.348094959 269.502666066 658.348094959 269.502666066"
             style="fill:#ffffff;fill-opacity:1;fill-rule:nonzero;stroke:none"
             id="path42" /></g><g
           id="g44"><path
             d="M774.521426837 441.652329095C774.521426837 441.652329095 774.521426837 426.195036736 774.521426837 426.195036736C774.521426837 404.676799744 753.643595384 396.190662752 729.734782548 384.06673722C715.927883477 377.096599986 702.12200254 369.216252017 701.110996657 355.273941283C701.110996657 355.273941283 701.110996657 313.449045345 701.110996657 313.449045345C701.110996657 293.748175423 711.212910423 284.35284583 726.366799204 284.35284583C744.214667407 284.35284583 750.949615962 297.385963963 750.949615962 313.145641767C750.949615962 313.145641767 750.949615962 340.42345608 750.949615962 340.42345608C750.949615962 340.42345608 768.123480243 340.42345608 768.123480243 340.42345608C768.123480243 340.42345608 768.123480243 312.843256322 768.123480243 312.843256322C768.123480243 288.293019814 752.969591462 269.804746072 726.366799204 269.804746072C696.734043696 269.804746072 683.263128454 289.202212416 683.263128454 313.449045345C683.263128454 313.449045345 683.263128454 355.880748439 683.263128454 355.880748439C685.284122087 380.126563236 708.182947173 390.128699986 727.376786954 399.827433158C743.540663485 408.011184705 757.347562555 413.465322181 757.347562555 427.407632916C757.347562555 427.407632916 757.347562555 441.652329095 757.347562555 441.652329095C757.347562555 458.322217634 747.918634579 471.657721213 729.397780587 471.657721213C709.192934923 471.657721213 699.427004985 456.806217877 700.099990774 441.046540072C700.099990774 441.046540072 700.099990774 420.437495681 700.099990774 420.437495681C700.099990774 420.437495681 682.590142665 420.437495681 682.590142665 420.437495681C682.590142665 420.437495681 682.590142665 441.046540072 682.590142665 441.046540072C682.253140704 468.020950806 701.785000579 485.902417392 729.397780587 485.902417392C760.041541977 485.902417392 774.521426837 465.292354869 774.521426837 441.652329095M719.96885261 377.398985431C723.336835954 379.217370634 726.703801165 381.035755838 730.407768337 382.551755595C730.407768337 382.551755595 736.469731102 385.582736978 736.469731102 385.582736978C736.469731102 385.582736978 736.132729141 385.582736978 736.132729141 385.582736978C750.949615962 392.856277791 764.419513071 400.130836736 771.490445454 410.737744377C771.490445454 410.737744377 780.920391563 418.921495923 780.920391563 418.921495923C787.654321985 424.982440556 792.032293079 431.953595923 792.032293079 441.34994365C792.032293079 441.34994365 792.032293079 456.806217877 792.032293079 456.806217877C792.032293079 480.750665361 777.215406259 501.66311333 746.23566104 501.66311333C732.764745798 501.66311333 720.97884036 497.419535767 712.560918266 489.842591377C712.560918266 489.842591377 702.457986368 480.750665361 702.457986368 480.750665361C688.988089259 473.172702838 680.570167165 458.928006658 680.906150993 441.046540072C680.906150993 441.046540072 680.906150993 418.921495923 680.906150993 418.921495923C680.906150993 418.921495923 701.785000579 418.921495923 701.785000579 418.921495923C701.785000579 418.921495923 701.785000579 420.739881127 701.785000579 420.739881127C701.785000579 420.739881127 717.611875149 434.984577306 717.611875149 434.984577306C717.611875149 434.984577306 717.611875149 456.200428853 717.611875149 456.200428853C717.274873188 460.444006416 717.611875149 464.686565845 718.95886486 468.62673983C721.98882811 469.535932431 725.356811454 470.142739588 729.397780587 470.142739588C746.908646829 470.142739588 755.664589016 457.413025033 755.664589016 441.652329095C755.664589016 441.652329095 755.664589016 427.407632916 755.664589016 427.407632916C755.664589016 424.982440556 755.326568923 423.164055353 754.316581173 421.043284705C754.316581173 421.043284705 748.25563654 417.708899744 748.25563654 417.708899744C748.25563654 417.708899744 743.877665446 415.587110963 743.877665446 415.587110963C743.877665446 415.587110963 740.510700235 413.768725759 740.510700235 413.768725759C731.081772259 408.920377306 720.641838399 404.069992588 712.897920227 396.796451775C712.897920227 396.796451775 704.814963829 389.522910963 704.814963829 389.522910963C692.69205643 381.944948439 682.926126493 371.640426244 681.580154915 355.880748439C681.580154915 355.880748439 681.580154915 313.449045345 681.580154915 313.449045345C681.580154915 288.293019814 695.723037813 268.289764447 726.366799204 268.289764447C742.530675735 268.289764447 754.653583134 274.957516236 762.06253561 285.565442009C762.06253561 285.565442009 772.165467509 294.658386158 772.165467509 294.658386158C780.920391563 302.537715994 785.634346485 314.358237947 785.634346485 327.997145103C785.634346485 327.997145103 785.634346485 356.183133884 785.634346485 356.183133884C785.634346485 356.183133884 767.113492493 356.183133884 767.113492493 356.183133884C767.113492493 356.183133884 751.286617923 341.938437705 751.286617923 341.938437705C751.286617923 341.938437705 749.26562429 341.938437705 749.26562429 341.938437705C749.26562429 341.938437705 749.26562429 313.145641767 749.26562429 313.145641767C749.26562429 308.599678759 748.592638501 304.356101197 747.24564879 300.719330791C745.898659079 300.416945345 744.550651235 300.113541767 743.203661524 300.113541767C728.386774704 300.113541767 718.621862899 309.206485916 718.621862899 328.602934127C718.621862899 328.602934127 718.621862899 370.427830064 718.621862899 370.427830064C718.621862899 372.853022423 718.95886486 375.278214783 719.96885261 377.398985431"
             style="fill:#ffffff;fill-opacity:1;fill-rule:nonzero;stroke:none"
             id="path46" /></g><g
           id="g48"><path
             d="M147.037418551 544.970410642C143.310034324 544.970410642 136.569995105 551.279779681 131.98127052 559.02267972C127.321276637 566.837867189 126.604511137 573.074948798 130.332913496 573.074948798C133.990046559 573.074948798 140.729067645 566.837867189 145.389061527 559.02267972C149.977786113 551.279779681 150.76582091 544.970410642 147.037418551 544.970410642M154.207109816 567.841746142C146.679035801 579.456605267 135.566116152 584.4749819 129.185477816 584.4749819C123.808718434 584.4749819 121.226733621 581.17724972 120.653524848 577.305290634C120.653524848 577.305290634 103.016410137 610.28566683 103.016410137 610.28566683C103.016410137 610.28566683 91.6163770352 610.28566683 91.6163770352 610.28566683C91.6163770352 610.28566683 129.616147996 539.593651259 129.616147996 539.593651259C129.616147996 539.593651259 140.943893668 539.593651259 140.943893668 539.593651259C140.943893668 539.593651259 138.361908855 544.397201869 138.361908855 544.397201869C142.520981395 540.239147463 147.539358027 536.869127853 152.415196066 536.869127853C162.165854012 536.869127853 167.184230645 547.838490775 154.207109816 567.841746142"
             style="fill:#ffffff;fill-opacity:1;fill-rule:nonzero;stroke:none"
             id="path50" /></g><g
           id="g52"><path
             d="M175.070891037 561.747712193C174.926316177 562.106094943 174.711490154 562.393208396 174.497682263 562.751591146C178.010240466 565.476114552 182.024738146 562.751591146 185.394757755 559.95478031C189.982464209 556.083839357 193.854423295 547.695443115 190.198308365 547.695443115C186.469906005 547.695443115 179.73088492 553.932524724 175.070891037 561.747712193M222.102518177 547.910269138C211.563825435 565.045444373 193.497058677 587.127726943 175.787656537 587.127726943C158.221811123 587.127726943 154.63696549 573.577397341 164.458892732 557.875753107C172.489924357 545.114476435 182.311851599 539.521872896 188.621220638 539.521872896C199.017374787 539.521872896 205.46928242 549.416087568 195.216684998 562.24965167C189.050872685 569.920264279 181.953468849 573.290283888 175.71638724 571.354813412C174.13828138 570.925161365 172.919576404 570.136108435 171.915697451 569.203498779C170.696992474 574.939659045 173.206689857 578.595773974 179.37250217 578.595773974C191.704126795 578.595773974 207.119675709 561.89126892 220.884831334 542.604779052C222.03124888 541.026673193 222.676745084 546.977659482 222.102518177 547.910269138"
             style="fill:#ffffff;fill-opacity:1;fill-rule:nonzero;stroke:none"
             id="path54" /></g><g
           id="g56"><path
             d="M250.13527797 548.196771712C248.127520064 550.275798915 220.955591564 574.078725938 215.219431298 579.527772751C208.981331556 585.407489743 205.10937247 587.128134196 202.098753744 587.128134196C197.367490564 587.128134196 195.216175931 583.685827157 199.302961041 576.230040571C200.736492041 573.577804595 208.409140916 559.166134634 215.936196798 545.185134852C215.936196798 545.185134852 207.619069853 545.185134852 207.619069853 545.185134852C208.83777483 542.891281626 209.555558463 541.60028922 209.555558463 541.60028922C209.555558463 541.60028922 217.800397978 541.60028922 217.800397978 541.60028922C224.898819947 528.337073071 227.121403877 524.465113985 227.121403877 524.465113985C227.121403877 524.465113985 238.520418845 524.465113985 238.520418845 524.465113985C238.520418845 524.465113985 235.795895439 529.126126001 229.20043108 541.60028922C229.20043108 541.60028922 237.731365916 541.529019923 237.731365916 541.529019923C237.731365916 541.529019923 237.014600416 542.891281626 235.795895439 545.185134852C235.795895439 545.185134852 227.26394247 545.185134852 227.26394247 545.185134852C222.532679291 554.075470571 218.231068158 562.106502196 217.012363181 564.400355423C215.936196798 566.335825899 214.000726322 570.279054282 214.573935095 570.852263055C215.148162002 571.497759259 216.867788322 569.920671532 218.731989502 568.343583805C221.456512908 566.049730579 246.693989064 545.400979009 249.347243173 542.604168173C250.708486744 541.170637173 250.85204347 547.408736915 250.13527797 548.196771712"
             style="fill:#ffffff;fill-opacity:1;fill-rule:nonzero;stroke:none"
             id="path58" /></g><g
           id="g60"><path
             d="M263.082567507 580.60353188C263.942889734 579.457114334 264.87549939 578.45323538 265.807090913 577.018686248C261.649036507 578.309678654 258.493842921 579.457114334 258.206729468 580.96191463C257.705808124 583.61516874 261.289635624 583.041959966 263.082567507 580.60353188M309.254890554 547.479598959C302.801964788 557.158987607 288.678426413 567.698698482 279.357420515 572.215135638C274.481582476 584.761586287 267.169352616 587.127726943 259.856104624 587.127726943C255.410936765 587.127726943 249.102585859 585.694195943 250.249003405 579.457114334C251.109325632 574.508988865 259.570009304 572.860631841 268.746440343 570.422203755C269.464223976 568.271907255 270.037432749 565.690940576 270.68191082 562.320920966C272.690686859 551.064444591 273.407452359 537.08344481 285.953903007 536.224140716C298.500353655 535.362800357 285.308406804 546.619276732 285.308406804 546.619276732C285.308406804 546.619276732 283.515474921 555.58189988 282.440326671 560.958659263C282.153213218 562.751591146 281.723561171 564.472235599 281.293909124 566.049323326C288.820965007 562.679303716 298.141970905 556.227396084 308.609394351 542.604779052C310.330038804 541.171248052 309.828099327 546.548007435 309.254890554 547.479598959"
             style="fill:#ffffff;fill-opacity:1;fill-rule:nonzero;stroke:none"
             id="path62" /></g><g
           id="g64"><path
             d="M311.117666348 522.458068772C313.125424254 518.084170209 318.216088316 514.499324577 322.588968746 514.499324577C327.034136605 514.499324577 328.969607082 518.084170209 327.034136605 522.458068772C325.097647996 526.830949202 319.935714637 530.344525538 315.562834207 530.344525538C311.188935645 530.344525538 309.182195871 526.830949202 311.117666348 522.458068772M333.629600965 548.196466272C331.622861191 550.276511608 307.962472762 574.079438631 302.227330629 579.528485444C295.99024902 585.407184303 292.118289934 587.127828756 289.106653074 587.127828756C284.374371762 587.127828756 282.224075262 583.68653985 286.310860371 576.229735131C289.250209801 570.852975748 305.955732988 539.593244006 305.955732988 539.593244006C305.955732988 539.593244006 317.354747957 539.521974709 317.354747957 539.521974709C317.354747957 539.521974709 307.103168668 558.59262042 304.019244379 564.400049983C302.945114262 566.336538592 301.008625652 570.279766975 301.581834426 570.852975748C302.155043199 571.498471952 303.876705785 569.920366092 305.740906965 568.343278366C308.465430371 566.049425139 330.188312059 545.400673569 332.841566168 542.604880866C334.203827871 541.170331733 334.346366465 547.408431475 333.629600965 548.196466272"
             style="fill:#ffffff;fill-opacity:1;fill-rule:nonzero;stroke:none"
             id="path66" /></g><g
           id="g68"><path
             d="M362.164503861 548.196771712C360.156745955 550.275798915 332.984817455 574.078725938 327.248657189 579.527772751C321.010557447 585.407489743 317.138598361 587.128134196 314.127979634 587.128134196C309.396716455 587.128134196 307.245401822 583.685827157 311.332186931 576.230040571C312.765717931 573.577804595 320.438366806 559.166134634 327.965422689 545.185134852C327.965422689 545.185134852 319.648295744 545.185134852 319.648295744 545.185134852C320.86700072 542.891281626 321.584784353 541.60028922 321.584784353 541.60028922C321.584784353 541.60028922 329.829623869 541.60028922 329.829623869 541.60028922C336.928045838 528.337073071 339.150629767 524.465113985 339.150629767 524.465113985C339.150629767 524.465113985 350.549644736 524.465113985 350.549644736 524.465113985C350.549644736 524.465113985 347.82512133 529.126126001 341.22965697 541.60028922C341.22965697 541.60028922 349.760591806 541.529019923 349.760591806 541.529019923C349.760591806 541.529019923 349.043826306 542.891281626 347.82512133 545.185134852C347.82512133 545.185134852 339.293168361 545.185134852 339.293168361 545.185134852C334.561905181 554.075470571 330.260294048 562.106502196 329.041589072 564.400355423C327.965422689 566.335825899 326.029952213 570.279054282 326.603160986 570.852263055C327.177387892 571.497759259 328.897014213 569.920671532 330.761215392 568.343583805C333.485738798 566.049730579 358.723214955 545.400979009 361.376469064 542.604168173C362.737712634 541.170637173 362.881269361 547.408736915 362.164503861 548.196771712"
             style="fill:#ffffff;fill-opacity:1;fill-rule:nonzero;stroke:none"
             id="path70" /></g><g
           id="g72"><path
             d="M390.985502077 548.196771712C388.977744171 550.275798915 361.805815671 574.078725938 356.069655405 579.527772751C349.831555663 585.407489743 345.959596577 587.128134196 342.948977851 587.128134196C338.217714671 587.128134196 336.066400038 583.685827157 340.153185148 576.230040571C341.586716148 573.577804595 349.259365023 559.166134634 356.786420905 545.185134852C356.786420905 545.185134852 348.46929396 545.185134852 348.46929396 545.185134852C349.687998937 542.891281626 350.40578257 541.60028922 350.40578257 541.60028922C350.40578257 541.60028922 358.650622085 541.60028922 358.650622085 541.60028922C365.749044054 528.337073071 367.971627984 524.465113985 367.971627984 524.465113985C367.971627984 524.465113985 379.370642952 524.465113985 379.370642952 524.465113985C379.370642952 524.465113985 376.646119546 529.126126001 370.050655187 541.60028922C370.050655187 541.60028922 378.581590023 541.529019923 378.581590023 541.529019923C378.581590023 541.529019923 377.864824523 542.891281626 376.646119546 545.185134852C376.646119546 545.185134852 368.114166577 545.185134852 368.114166577 545.185134852C363.382903398 554.075470571 359.081292265 562.106502196 357.862587288 564.400355423C356.786420905 566.335825899 354.850950429 570.279054282 355.424159202 570.852263055C355.998386109 571.497759259 357.718012429 569.920671532 359.582213609 568.343583805C362.306737015 566.049730579 387.544213171 545.400979009 390.19746728 542.604168173C391.558710851 541.170637173 391.702267577 547.408736915 390.985502077 548.196771712"
             style="fill:#ffffff;fill-opacity:1;fill-rule:nonzero;stroke:none"
             id="path74" /></g><g
           id="g76"><path
             d="M393.780378461 522.458068772C395.7891545 518.084170209 400.87880043 514.499324577 405.252698992 514.499324577C409.697866852 514.499324577 411.633337328 518.084170209 409.697866852 522.458068772C407.761378242 526.830949202 402.599444883 530.344525538 398.22554632 530.344525538C393.852665891 530.344525538 391.845926117 526.830949202 393.780378461 522.458068772M416.293331211 548.196466272C414.286591438 550.276511608 390.626203008 574.079438631 384.891060875 579.528485444C378.652961133 585.407184303 374.781002047 587.127828756 371.77038332 587.127828756C367.038102008 587.127828756 364.886787375 583.68653985 368.974590617 576.229735131C371.912921914 570.852975748 388.619463234 539.593244006 388.619463234 539.593244006C388.619463234 539.593244006 400.018478203 539.521974709 400.018478203 539.521974709C400.018478203 539.521974709 389.765880781 558.59262042 386.682974625 564.400049983C385.607826375 566.336538592 383.671337766 570.279766975 384.245564672 570.852975748C384.818773445 571.498471952 386.539417898 569.920366092 388.403619078 568.343278366C391.128142484 566.049425139 412.852042305 545.400673569 415.505296414 542.604880866C416.867558117 541.170331733 417.010096711 547.408431475 416.293331211 548.196466272"
             style="fill:#ffffff;fill-opacity:1;fill-rule:nonzero;stroke:none"
             id="path78" /></g><g
           id="g80"><path
             d="M467.556216507 548.196771712C465.548458601 550.275798915 441.960357601 574.078725938 436.225215468 579.527772751C429.988133859 585.407489743 426.044905476 587.128134196 423.104537913 587.128134196C418.372256601 587.128134196 416.221960101 583.685827157 420.30874521 576.230040571C423.247076507 570.852263055 425.32610371 566.694208649 428.624854023 560.671953063C431.564203452 555.151636954 432.495794976 551.996443368 430.059403155 551.996443368C425.900330616 551.996443368 406.757397476 569.920671532 397.43740971 587.128134196C397.43740971 587.128134196 397.580966437 586.91229004 397.580966437 586.91229004C397.580966437 586.91229004 397.43740971 587.128134196 397.43740971 587.128134196C397.43740971 587.128134196 386.109664038 587.128134196 386.109664038 587.128134196C386.109664038 587.128134196 411.633235515 539.593549446 411.633235515 539.593549446C411.633235515 539.593549446 422.960981187 539.593549446 422.960981187 539.593549446C422.960981187 539.593549446 411.274852765 561.388718563 411.274852765 561.388718563C425.685504593 542.604168173 436.081658741 539.521262016 439.451678351 539.521262016C445.04428189 539.521262016 449.41716232 542.676455602 443.968115507 553.072609751C442.247471054 556.441611227 441.100035374 558.59292586 437.945859921 564.400355423C436.941980968 566.335825899 435.005492359 570.279054282 435.579719265 570.852263055C436.152928038 571.497759259 437.874590624 569.920671532 439.665486241 568.343583805C442.46331521 566.049730579 464.186196898 545.400979009 466.839451007 542.604168173C468.20171271 541.170637173 468.344251304 547.408736915 467.556216507 548.196771712"
             style="fill:#ffffff;fill-opacity:1;fill-rule:nonzero;stroke:none"
             id="path82" /></g><g
           id="g84"><path
             d="M473.29013688 561.747712193C477.950130763 554.004812154 478.666896263 547.695443115 474.938493904 547.695443115C471.282378974 547.695443115 464.542339755 554.004812154 459.882345873 561.747712193C455.293621287 569.490612232 454.50558649 575.799981271 458.233988849 575.799981271C461.962391209 575.799981271 468.701412295 569.490612232 473.29013688 561.747712193M457.157822466 593.939035459C448.625869498 600.033578474 443.249110115 604.478746334 443.249110115 607.776478513C443.249110115 610.14261917 444.540102521 610.85938467 446.044902818 610.85938467C448.98527038 610.85938467 450.993028287 605.62516388 454.720412513 598.671316771C454.720412513 598.671316771 457.157822466 593.939035459 457.157822466 593.939035459C457.157822466 593.939035459 457.157822466 593.939035459 457.157822466 593.939035459M513.296647615 548.196364459C500.390796084 561.89126892 486.625640459 572.788344412 474.652398584 581.463854107C469.920117271 590.354189826 465.976888888 597.738707115 464.758183912 599.818752451C458.807197623 609.927793146 455.078795263 615.662935279 445.973633521 615.662935279C441.528465662 615.662935279 434.93198317 612.507741693 434.93198317 606.199390787C434.93198317 598.025820568 446.761668318 594.799357685 461.244607576 586.19613542C461.244607576 586.19613542 465.116566662 578.81161813 465.116566662 578.81161813C460.743686232 583.328055287 455.438196146 587.127726943 450.203975357 587.127726943C440.453317412 587.127726943 437.512949849 575.656424545 447.694277974 560.170624466C457.874587966 544.683806255 467.052037138 539.521872896 473.433693607 539.521872896C477.591748013 539.521872896 480.603384873 543.393831982 481.39141967 547.695443115C481.39141967 547.695443115 485.621761505 539.521872896 485.621761505 539.521872896C485.621761505 539.521872896 496.949507177 539.521872896 496.949507177 539.521872896C496.949507177 539.521872896 487.773076138 557.01543088 479.097566443 573.219014591C490.425312115 563.68318267 503.903354287 550.921905998 512.508612818 542.604779052C513.942143818 541.242517349 514.013413115 547.408329662 513.296647615 548.196364459"
             style="fill:#ffffff;fill-opacity:1;fill-rule:nonzero;stroke:none"
             id="path86" /></g><g
           id="g88"><path
             d="M526.263790741 580.60353188C527.124112968 579.457114334 528.056722624 578.45323538 528.988314148 577.018686248C524.830259741 578.309678654 521.675066155 579.457114334 521.387952702 580.96191463C520.887031359 583.61516874 524.470858859 583.041959966 526.263790741 580.60353188M572.436113788 547.479598959C565.983188023 557.158987607 551.859649648 567.698698482 542.537625616 572.215135638C537.66280571 584.761586287 530.350575851 587.127726943 523.037327859 587.127726943C518.592159999 587.127726943 512.283809093 585.694195943 513.43022664 579.457114334C514.290548866 574.508988865 522.751232538 572.860631841 531.927663577 570.422203755C532.64544721 568.271907255 533.218655984 565.690940576 533.863134054 562.320920966C535.871910093 551.064444591 536.588675593 537.08344481 549.135126241 536.224140716C561.68157689 535.362800357 548.489630038 546.619276732 548.489630038 546.619276732C548.489630038 546.619276732 546.696698155 555.58189988 545.621549905 560.958659263C545.334436452 562.751591146 544.904784405 564.472235599 544.474114226 566.049323326C552.002188241 562.679303716 561.32319414 556.227396084 571.790617585 542.604779052C573.511262038 541.171248052 573.009322562 546.548007435 572.436113788 547.479598959"
             style="fill:#ffffff;fill-opacity:1;fill-rule:nonzero;stroke:none"
             id="path90" /></g><g
           id="g92"><path
             d="M564.90610532 561.747712193C564.762548594 562.106094943 564.546704438 562.393208396 564.332896547 562.751591146C567.84545475 565.476114552 571.860970563 562.751591146 575.230990172 559.95478031C579.818696625 556.083839357 583.690655711 547.695443115 580.033522648 547.695443115C576.305120289 547.695443115 569.566099203 553.932524724 564.90610532 561.747712193M611.938750594 547.910269138C601.400057852 565.045444373 583.332272961 587.127726943 565.62287082 587.127726943C548.057025406 587.127726943 544.473197906 573.577397341 554.295125148 557.875753107C562.325138641 545.114476435 572.147065883 539.521872896 578.457453055 539.521872896C588.85258907 539.521872896 595.304496703 549.416087568 585.052917414 562.24965167C578.886086969 569.920264279 571.788683133 573.290283888 565.551601523 571.354813412C563.973495664 570.925161365 562.75580882 570.136108435 561.750911734 569.203498779C560.532206758 574.939659045 563.041904141 578.595773974 569.207716453 578.595773974C581.539341078 578.595773974 596.954889992 561.89126892 610.720045617 542.604779052C611.867481297 541.026673193 612.5129775 546.977659482 611.938750594 547.910269138"
             style="fill:#ffffff;fill-opacity:1;fill-rule:nonzero;stroke:none"
             id="path94" /></g><g
           id="g96"><path
             d="M645.277000473 548.196771712C643.269242566 550.275798915 619.681141566 574.078725938 613.873712004 579.527772751C607.708917824 585.407489743 603.693402012 587.128134196 600.754052582 587.128134196C596.02177127 587.128134196 593.942744066 583.685827157 597.957241746 576.230040571C600.896591176 570.852263055 604.839819559 563.03809372 608.353395895 557.15939486C612.009510824 551.064851845 607.636630395 550.562912368 605.915985941 549.702590141C602.044026855 547.694832235 596.452441449 541.385463196 601.686662238 534.789998837C605.844716645 529.628065477 612.081798254 530.63194443 615.59537459 532.925797657C619.395046246 535.36320761 615.952739207 540.16675822 611.652146207 544.826752102C612.081798254 545.328691579 612.58373773 545.759361759 613.228215801 546.117744509C618.749550043 549.272938095 625.846953879 545.615805032 621.04340327 554.793254204C619.25148952 558.23454311 618.749550043 558.59292586 615.666643887 564.400355423C614.590477504 566.335825899 612.726276324 570.279054282 613.30050323 570.852263055C613.873712004 571.497759259 615.59537459 569.920671532 617.386270207 568.343583805C620.184099176 566.049730579 641.835711566 545.400979009 644.488965676 542.604168173C645.922496676 541.170637173 645.993765973 547.408736915 645.277000473 548.196771712"
             style="fill:#ffffff;fill-opacity:1;fill-rule:nonzero;stroke:none"
             id="path98" /></g><g
           id="g100"><path
             d="M684.349781605 548.053622238C683.633016105 548.841657035 668.934232691 569.992348082 657.320391698 564.686857996C645.49070655 582.181434113 639.037780784 587.127523316 633.015525198 587.127523316C624.84195498 587.127523316 622.403526894 580.03011948 625.629989777 571.785279965C629.358392136 562.178178746 638.607110605 539.592938566 638.607110605 539.592938566C638.607110605 539.592938566 649.934856277 539.52166927 649.934856277 539.52166927C649.934856277 539.52166927 643.267104487 556.729131934 639.323876105 566.694615902C637.961614402 570.135904809 638.176440425 573.291098395 641.402903308 573.291098395C645.49070655 573.291098395 649.433934933 567.769764152 653.520720042 560.385246863C651.225848683 552.784885418 658.968748722 539.378112543 664.848465714 539.378112543C666.927492917 539.378112543 670.51233855 542.389749402 667.358163097 548.197178965C666.067170691 550.491032191 662.052673011 557.302340707 662.052673011 557.302340707C668.002641167 561.389125816 679.115560816 547.049743285 680.908492698 544.683602629C682.772693878 542.317461973 685.066547105 547.264569309 684.349781605 548.053622238"
             style="fill:#ffffff;fill-opacity:1;fill-rule:nonzero;stroke:none"
             id="path102" /></g><g
           id="g104"><path
             d="M687.287909275 522.458068772C689.295667181 518.084170209 694.386331244 514.499324577 698.760229806 514.499324577C703.205397666 514.499324577 705.139850009 518.084170209 703.205397666 522.458068772C701.268909056 526.830949202 696.106975697 530.344525538 691.733077134 530.344525538C687.359178572 530.344525538 685.352438798 526.830949202 687.287909275 522.458068772M709.800862025 548.196466272C707.794122252 550.276511608 684.132715689 574.079438631 678.398591689 579.528485444C672.160491947 585.407184303 668.288532861 587.127828756 665.277914134 587.127828756C660.544614689 587.127828756 658.394318189 583.68653985 662.481103298 576.229735131C665.420452728 570.852975748 682.125975916 539.593244006 682.125975916 539.593244006C682.125975916 539.593244006 693.526009017 539.521974709 693.526009017 539.521974709C693.526009017 539.521974709 683.273411595 558.59262042 680.189487306 564.400049983C679.115357189 566.336538592 677.17886858 570.279766975 677.753095486 570.852975748C678.326304259 571.498471952 680.046948712 569.920366092 681.911149892 568.343278366C684.635673298 566.049425139 706.358554986 545.400673569 709.011809095 542.604880866C710.374070798 541.170331733 710.517627525 547.408431475 709.800862025 548.196466272"
             style="fill:#ffffff;fill-opacity:1;fill-rule:nonzero;stroke:none"
             id="path106" /></g><g
           id="g108"><path
             d="M751.167801823 547.909963698C740.628090948 565.046157066 722.560306058 587.128439636 704.92420948 587.128439636C688.720625769 587.128439636 683.701231003 573.577091902 693.524176378 557.8764658C701.55418987 545.114170995 711.376117113 539.521567456 717.757773581 539.521567456C728.0816403 539.521567456 734.176183316 549.057399378 724.281968644 562.24934623C720.625853714 567.052896839 714.459023269 559.955493003 714.459023269 559.955493003C719.047747855 556.083533917 722.990976238 547.695137675 719.262573878 547.695137675C715.535189652 547.695137675 708.795150433 553.933237417 704.206425847 561.747406753C698.327726988 571.641621425 699.977102144 578.596486667 708.436767683 578.596486667C720.769410441 578.596486667 736.182923089 561.89096348 749.949096847 542.604473612C751.096532527 541.027385886 751.741010597 546.977354042 751.167801823 547.909963698"
             style="fill:#ffffff;fill-opacity:1;fill-rule:nonzero;stroke:none"
             id="path110" /></g><g
           id="g112"><path
             d="M744.786552608 561.747712193C744.642995881 562.106094943 744.427151725 562.393208396 744.213343834 562.751591146C747.725902037 565.476114552 751.74141785 562.751591146 755.111437459 559.95478031C759.699143912 556.083839357 763.571102998 547.695443115 759.913969936 547.695443115C756.185567577 547.695443115 749.446546491 553.932524724 744.786552608 561.747712193M791.819197881 547.910269138C781.280505139 565.045444373 763.212720248 587.127726943 745.503318108 587.127726943C727.937472694 587.127726943 724.353645194 573.577397341 734.175572436 557.875753107C742.205585928 545.114476435 752.02751317 539.521872896 758.337900342 539.521872896C768.733036358 539.521872896 775.184943991 549.416087568 764.933364702 562.24965167C758.766534256 569.920264279 751.66913042 573.290283888 745.432048811 571.354813412C743.853942952 570.925161365 742.636256108 570.136108435 741.631359022 569.203498779C740.412654045 574.939659045 742.922351428 578.595773974 749.088163741 578.595773974C761.419788366 578.595773974 776.83533728 561.89126892 790.600492905 542.604779052C791.747928584 541.026673193 792.393424787 546.977659482 791.819197881 547.910269138"
             style="fill:#ffffff;fill-opacity:1;fill-rule:nonzero;stroke:none"
             id="path114" /></g></g></g></g></svg>